<svg fill="none" height="48" viewBox="0 0 198 48" width="198" xmlns="http://www.w3.org/2000/svg"><g fill="#fff" opacity=".9"><path d="m36.3066 11.1631c-.4323-.4322-.8645-.8644-1.2967-1.29662-1.2967-1.38311-2.6798-2.76621-4.4087-3.63065-1.9882-1.03733-4.1493-.778-6.3104-.778-3.2848 0-11.497 0-16.33789 0l3.28489 4.40865h19.6228c1.8153 0 3.3713.34582 4.8408 1.29662.2594.0865.5187.0865.6052 0z" opacity=".8"/><path d="m39.9372 18.2516c-.4322-.4322-.8645-.8644-1.2967-1.2966-1.2966-1.3831-2.6797-2.7662-4.4086-3.6307-1.9882-1.0373-4.1493-.778-6.3104-.778-2.8527 0-9.6818 0-14.5226 0l3.2848 4.4087h17.8939c1.8154 0 3.3714.3457 4.8409 1.2966.1729.0865.3458.0865.5187 0z" opacity=".9"/><path d="m44 25.1669c-.4322-.4322-.8644-.8644-1.2966-1.2966-1.2967-1.3831-2.6798-2.7663-4.4087-3.6307-1.9882-1.0373-4.1493-.778-6.3104-.778-2.6798 0-8.5579 0-13.3124 0l3.2849 4.4087h16.5973c1.8153 0 3.3713.3457 4.8408 1.2966.2593.0865.4322.1729.6051 0z"/><path d="m7.60715 36.8369c.43222.4322.86444.8644 1.29666 1.2966 1.29669 1.3831 2.67979 2.7662 4.40859 3.6307 1.9883 1.0373 4.1494.778 6.3105.778h16.3379l-3.2849-4.4087c-5.9646 0-15.3006 0-19.6228 0-1.8153 0-3.3713-.3457-4.84085-1.2966-.25933-.0865-.43221-.0865-.6051 0z" opacity=".8"/><path d="m3.97644 29.7487c.43222.4322.86444.8644 1.29666 1.2966 1.29666 1.3831 2.67976 2.7663 4.40864 3.6307 1.98826 1.0373 4.14936.778 6.31046.778h14.5226l-3.2849-4.4087c-5.8782 0-13.9175 0-17.89393 0-1.81533 0-3.37132-.3457-4.84087-1.2966-.17289-.0865-.34577-.0865-.51866 0z" opacity=".9"/><path d="m0 22.7465 1.29666 1.2966c1.29666 1.3831 2.67977 2.7663 4.40865 3.6307 1.98821 1.0373 4.1493.778 6.31039.778h13.3124l-3.2849-4.4087c-5.7053 0-12.96658 0-16.59722 0-1.81533 0-3.37133-.3457-4.840874-1.2966-.259333-.0865-.432218-.0865-.605106 0z"/><path d="m53.932 14.008v19.992h4.396v-8.26h8.372v-3.416h-8.372v-4.62h9.66v-3.696z"/><path d="m79.0137 25.208h-6.468c.0186-.28.0746-.5973.168-.952.112-.3547.2893-.6907.532-1.008.2613-.3173.5973-.5787 1.008-.784.4293-.224.9613-.336 1.596-.336.9706 0 1.6893.2613 2.156.784.4853.5227.8213 1.288 1.008 2.296zm-6.468 2.52h10.444c.0746-1.12-.0187-2.1933-.28-3.22-.2614-1.0267-.6907-1.9413-1.288-2.744-.5787-.8027-1.3254-1.4373-2.24-1.904-.9147-.4853-1.988-.728-3.22-.728-1.1014 0-2.1094.196-3.024.588-.896.392-1.6707.9333-2.324 1.624-.6534.672-1.1574 1.4747-1.512 2.408-.3547.9333-.532 1.9413-.532 3.024 0 1.12.168 2.1467.504 3.08.3546.9333.8493 1.736 1.484 2.408.6346.672 1.4093 1.1947 2.324 1.568.9146.3547 1.9413.532 3.08.532 1.6426 0 3.0426-.3733 4.2-1.12 1.1573-.7467 2.016-1.988 2.576-3.724h-3.5c-.1307.448-.4854.8773-1.064 1.288-.5787.392-1.2694.588-2.072.588-1.12 0-1.9787-.2893-2.576-.868-.5974-.5787-.924-1.512-.98-2.8z"/><path d="m84.3398 23.976c.056-.9333.2893-1.708.7-2.324s.9333-1.1107 1.568-1.484 1.344-.6347 2.128-.784c.8027-.168 1.6053-.252 2.408-.252.728 0 1.4653.056 2.212.168.7467.0933 1.428.2893 2.044.588s1.12.7187 1.512 1.26c.392.5227.588 1.2227.588 2.1v7.532c0 .6533.0373 1.2787.112 1.876s.2053 1.0453.392 1.344h-4.032c-.0747-.224-.14-.448-.196-.672-.0373-.2427-.0653-.4853-.084-.728-.6347.6533-1.3813 1.1107-2.24 1.372s-1.736.392-2.632.392c-.6907 0-1.3347-.084-1.932-.252s-1.12-.4293-1.568-.784-.8027-.8027-1.064-1.344c-.2427-.5413-.364-1.1853-.364-1.932 0-.8213.14-1.4933.42-2.016.2987-.5413.672-.9707 1.12-1.288.4667-.3173.9893-.5507 1.568-.7.5973-.168 1.1947-.2987 1.792-.392s1.1853-.168 1.764-.224 1.092-.14 1.54-.252.8027-.2707 1.064-.476c.2613-.224.3827-.5413.364-.952 0-.4293-.0747-.7653-.224-1.008-.1307-.2613-.3173-.4573-.56-.588-.224-.1493-.4947-.2427-.812-.28-.2987-.056-.6253-.084-.98-.084-.784 0-1.4.168-1.848.504s-.7093.896-.784 1.68zm9.184 2.94c-.168.1493-.3827.2707-.644.364-.2427.0747-.5133.14-.812.196-.28.056-.5787.1027-.896.14s-.6347.084-.952.14c-.2987.056-.5973.1307-.896.224-.28.0933-.532.224-.756.392-.2053.1493-.3733.3453-.504.588s-.196.5507-.196.924c0 .3547.0653.6533.196.896s.308.4387.532.588c.224.1307.4853.224.784.28s.6067.084.924.084c.784 0 1.3907-.1307 1.82-.392s.7467-.5693.952-.924c.2053-.3733.3267-.7467.364-1.12.056-.3733.084-.672.084-.896z"/><path d="m104.786 19.524v-4.34h-3.976v4.34h-2.4081v2.66h2.4081v8.54c0 .728.121 1.316.364 1.764s.569.7933.98 1.036c.429.2427.915.4013 1.456.476.56.0933 1.148.14 1.764.14.392 0 .793-.0093 1.204-.028s.784-.056 1.12-.112v-3.08c-.187.0373-.383.0653-.588.084s-.42.028-.644.028c-.672 0-1.12-.112-1.344-.336s-.336-.672-.336-1.344v-7.168h2.912v-2.66z"/><path d="m108.75 14.008v19.992h3.976v-7.588c0-1.4747.242-2.5293.728-3.164.485-.6533 1.269-.98 2.352-.98.952 0 1.614.2987 1.988.896.373.5787.56 1.4653.56 2.66v8.176h3.976v-8.904c0-.896-.084-1.708-.252-2.436-.15-.7467-.42-1.372-.812-1.876-.392-.5227-.934-.924-1.624-1.204-.672-.2987-1.54-.448-2.604-.448-.747 0-1.512.196-2.296.588-.784.3733-1.428.98-1.932 1.82h-.084v-7.532z"/><path d="m134.251 25.208h-6.468c.019-.28.075-.5973.168-.952.112-.3547.29-.6907.532-1.008.262-.3173.598-.5787 1.008-.784.43-.224.962-.336 1.596-.336.971 0 1.69.2613 2.156.784.486.5227.822 1.288 1.008 2.296zm-6.468 2.52h10.444c.075-1.12-.018-2.1933-.28-3.22-.261-1.0267-.69-1.9413-1.288-2.744-.578-.8027-1.325-1.4373-2.24-1.904-.914-.4853-1.988-.728-3.22-.728-1.101 0-2.109.196-3.024.588-.896.392-1.67.9333-2.324 1.624-.653.672-1.157 1.4747-1.512 2.408-.354.9333-.532 1.9413-.532 3.024 0 1.12.168 2.1467.504 3.08.355.9333.85 1.736 1.484 2.408.635.672 1.41 1.1947 2.324 1.568.915.3547 1.942.532 3.08.532 1.643 0 3.043-.3733 4.2-1.12 1.158-.7467 2.016-1.988 2.576-3.724h-3.5c-.13.448-.485.8773-1.064 1.288-.578.392-1.269.588-2.072.588-1.12 0-1.978-.2893-2.576-.868-.597-.5787-.924-1.512-.98-2.8z"/><path d="m139.745 19.524v14.476h3.976v-6.524c0-.6533.066-1.26.196-1.82.131-.56.346-1.0453.644-1.456.318-.4293.728-.7653 1.232-1.008s1.12-.364 1.848-.364c.243 0 .495.0187.756.056.262.0187.486.0467.672.084v-3.696c-.317-.0933-.606-.14-.868-.14-.504 0-.989.0747-1.456.224-.466.1493-.905.364-1.316.644-.41.2613-.774.588-1.092.98-.317.3733-.569.784-.756 1.232h-.056v-2.688z"/><path d="m154.604 30.304v-12.6h3.136c1.083 0 1.988.1587 2.716.476.747.2987 1.344.7373 1.792 1.316s.766 1.2787.952 2.1c.206.8027.308 1.708.308 2.716 0 1.1013-.14 2.0347-.42 2.8s-.653 1.3907-1.12 1.876c-.466.4667-.998.8027-1.596 1.008-.597.2053-1.213.308-1.848.308zm-4.396-16.296v19.992h8.624c1.531 0 2.856-.252 3.976-.756 1.139-.5227 2.082-1.232 2.828-2.128.766-.896 1.335-1.96 1.708-3.192.374-1.232.56-2.576.56-4.032 0-1.6613-.233-3.108-.7-4.34-.448-1.232-1.082-2.2587-1.904-3.08-.802-.8213-1.764-1.4373-2.884-1.848-1.101-.4107-2.296-.616-3.584-.616z"/><path d="m179.446 25.208h-6.468c.019-.28.075-.5973.168-.952.112-.3547.289-.6907.532-1.008.261-.3173.597-.5787 1.008-.784.429-.224.961-.336 1.596-.336.971 0 1.689.2613 2.156.784.485.5227.821 1.288 1.008 2.296zm-6.468 2.52h10.444c.075-1.12-.019-2.1933-.28-3.22s-.691-1.9413-1.288-2.744c-.579-.8027-1.325-1.4373-2.24-1.904-.915-.4853-1.988-.728-3.22-.728-1.101 0-2.109.196-3.024.588-.896.392-1.671.9333-2.324 1.624-.653.672-1.157 1.4747-1.512 2.408s-.532 1.9413-.532 3.024c0 1.12.168 2.1467.504 3.08.355.9333.849 1.736 1.484 2.408s1.409 1.1947 2.324 1.568c.915.3547 1.941.532 3.08.532 1.643 0 3.043-.3733 4.2-1.12 1.158-.7467 2.016-1.988 2.576-3.724h-3.5c-.131.448-.485.8773-1.064 1.288-.579.392-1.269.588-2.072.588-1.12 0-1.979-.2893-2.576-.868s-.924-1.512-.98-2.8z"/><path d="m192.948 34 4.9-14.476h-3.948l-3.052 9.884h-.056l-3.052-9.884h-4.172l4.956 14.476z"/></g></svg>