<svg fill="none" height="48" viewBox="0 0 199 48" width="199" xmlns="http://www.w3.org/2000/svg"><g fill="#fff" opacity=".9"><path d="m11.8322 4.48544 5.1485 19.21436v-21.12467c.4083-.09527.8209-.17916 1.2375-.25134v21.37801l5.7908-21.61129c.4173.03777.8312.08721 1.2415.14796l-5.8374 21.78543 11.6032-20.09736c.378.17006.7503.35047 1.1166.54089l-11.6464 20.17227 16.6268-16.62679c.2998.28347.5915.57529.875.87508l-16.6293 16.62931 20.1747-11.6479c.1904.3663.3708.7387.5408 1.1167l-20.0924 11.6004 21.7795-5.8358c.0607.4102.1101.8242.1479 1.2415l-21.6111 5.7907h21.3775c-.0722.4166-.1561.8292-.2514 1.2375h-21.1294l19.2182 5.1494c-.1974.378-.4054.7494-.6237 1.1141l-18.9093-5.0668 15.7936 9.1185c-.299.3075-.6069.6062-.9233.8959l-15.4877-8.9419 11.7193 11.7193c-.3707.2166-.7483.4227-1.1324.6178l-11.4632-11.4633 7.5108 13.0092c-.4112.1162-.8273.2208-1.2479.3134l-7.3357-12.7057 3.5368 13.1995c-.3152.0134-.6322.0202-.9507.0202-.1088 0-.2173-.0008-.3257-.0024l-3.456-12.898v12.5766c-.4166-.0722-.8292-.1561-1.2375-.2513v-12.3233l-3.0473 11.3726c-.3886-.1533-.7719-.3173-1.1494-.4917l3.0009-11.1995-5.6333 9.7572c-.34873-.2233-.69077-.4563-1.02572-.6984l5.58902-9.6804-7.82704 7.827c-.29978-.2834-.5916-.5752-.87508-.875l7.82452-7.8246-9.67763 5.5874c-.24216-.3349-.47511-.6769-.6985-1.0256l9.76173-5.636-11.20502 3.0024c-.1744-.3775-.33843-.7607-.49171-1.1494l11.37253-3.0472h-12.323413c-.09529-.4083-.179212-.8209-.251415-1.2376l12.571528.0001-12.89312442-3.4547c-.00159659-.1092-.00239765-.2186-.00239765-.3282 0-.3177.00673449-.6338.02006847-.9483l13.2011536 3.5373-12.7076-7.3368c.09253-.4206.197098-.8368.313325-1.248l13.014475 7.5139-11.46808-11.4681c.1951-.3841.40115-.7616.61773-1.1323l11.72405 11.7241-8.94536-15.49392c.28966-.31636.58845-.62423.89594-.92318l9.12012 15.7965-5.0675-18.91222c.3646-.21824.7361-.42622 1.114-.62354z"/><path d="m57.848 33.9092h4.788v-8.316h9.548v-4.228h-9.548v-3.556h10.164v-4.2h-14.952z"/><path d="m80.9377 21.9812c1.82 0 3.276 1.12 3.276 4.34 0 3.164-1.4 4.368-3.276 4.368s-3.276-1.204-3.276-4.368c0-3.22 1.456-4.34 3.276-4.34zm0-3.584c-4.172 0-7.98 2.464-7.98 7.924s3.808 7.952 7.98 7.952 7.98-2.492 7.98-7.952-3.808-7.924-7.98-7.924z"/><path d="m97.7891 18.3972c-4.564 0-7.7 3.108-7.7 7.896s2.744 7.98 7.7 7.98c3.0239 0 6.6359-1.428 7.6719-5.908h-4.312c-.336 1.428-1.3719 2.324-3.0799 2.324-1.652 0-3.276-1.092-3.276-4.368 0-3.22 1.624-4.34 3.276-4.34 1.372 0 2.4639.616 2.8839 2.38h4.312c-.896-4.536-4.34-5.964-7.4759-5.964z"/><path d="m116.317 24.5012c-5.852.448-10.024 1.652-10.024 5.348 0 2.744 2.352 4.424 5.208 4.424 2.156 0 3.948-.588 5.068-2.184l.056 1.82h4.536c-.224-.952-.336-2.716-.336-4.368v-1.568l.056-3.276c.084-4.564-2.38-6.328-6.72-6.328-4.48 0-7.168 2.52-7.392 5.348h4.312c.196-1.456 1.204-2.212 2.688-2.212 1.68 0 2.548.616 2.548 2.408zm.112 3.08c0 2.772-1.4 3.556-3.248 3.556-1.204 0-2.128-.644-2.128-1.624 0-1.624 2.156-1.988 5.376-2.296z"/><path d="m127.872 13.6092h-4.62v20.3h4.62z"/><path d="m130.818 13.6092v20.3h4.788v-7.028h3.024c5.264 0 9.212-1.316 9.212-6.664 0-5.32-3.948-6.608-9.212-6.608zm7.952 4.032c2.24 0 4.004.448 4.004 2.576s-1.764 2.632-4.004 2.632h-3.164v-5.208z"/><path d="m155.958 21.9812c1.82 0 3.276 1.12 3.276 4.34 0 3.164-1.4 4.368-3.276 4.368s-3.276-1.204-3.276-4.368c0-3.22 1.456-4.34 3.276-4.34zm0-3.584c-4.172 0-7.98 2.464-7.98 7.924s3.808 7.952 7.98 7.952 7.98-2.492 7.98-7.952-3.808-7.924-7.98-7.924z"/><path d="m165.787 18.8452v15.064h4.648v-15.064zm0-5.236v3.696h4.62v-3.696z"/><path d="m177.804 18.8452h-4.62v15.064h4.62v-7.728c0-2.8.812-4.088 2.8-4.088 2.24 0 2.324 1.764 2.324 3.92v7.896h4.62v-9.044c0-4.088-1.204-6.356-5.068-6.356-2.38 0-4.004 1.204-4.676 2.324z"/><path d="m190.742 18.8452h-2.38v3.276h2.38v7.56c0 3.5 1.26 4.228 4.984 4.228h2.94v-3.332h-1.316c-1.54 0-1.988-.28-1.988-1.708v-6.748h3.304v-3.276h-3.304v-4.116h-4.62z"/></g></svg>