<svg fill="none" height="48" viewBox="0 0 150 48" width="150" xmlns="http://www.w3.org/2000/svg"><g fill="#fff" opacity=".9"><path d="m32.4951 4.65997c2.9605 5.80443 4.6299 12.37723 4.6299 19.33993 0 6.9628-1.6695 13.5357-4.6299 19.3402 6.8532-3.7269 11.5049-10.9903 11.5049-19.3401s-4.6516-15.61316-11.5049-19.34003z" opacity=".8"/><path d="m22.6024 4.1986c-.9951-1.40965-2.6902-2.16883-4.3903-1.8738-10.34524 1.79531-18.2121 10.8165-18.2121 21.6751s7.86682 19.8798 18.212 21.6751c1.7001.2951 3.3953-.4641 4.3903-1.8737 3.9515-5.5978 6.2727-12.4285 6.2727-19.8014s-2.3212-14.20361-6.2726-19.8013z"/><path d="m64.584 34.2452c3.864 0 6.888-1.372 8.68-3.668v-7.196h-7.42l-.14 3.64 2.968-.14v2.296c-1.092.868-2.436 1.288-3.724 1.288-3.22 0-5.264-2.436-5.264-6.328s1.904-6.328 4.956-6.328c2.016 0 3.416 1.204 3.612 3.136h5.012c-.336-4.256-3.668-6.916-8.624-6.916-5.964 0-9.716 3.892-9.716 10.108s3.724 10.108 9.66 10.108z"/><path d="m85.5372 33.9092h4.228v-10.164c0-3.668-2.716-5.74-6.972-5.74-4.368 0-7.168 2.016-7.448 5.292h4.256c.14-1.372 1.26-2.212 2.996-2.212 1.764 0 2.8.896 2.8 2.38v1.064h-2.856c-4.2 0-6.748 1.82-6.748 5.04 0 2.744 1.988 4.676 5.012 4.676 1.932 0 3.584-.532 4.648-1.876zm-5.46-4.62c0-1.204.924-1.708 2.38-1.708l2.94-.028v1.204c-.84 1.288-1.988 2.044-3.5 2.044-1.232 0-1.82-.672-1.82-1.512z"/><path d="m92.9769 33.9092h4.368v-20.72h-4.368z"/><path d="m100.687 33.9092h4.368v-15.568h-4.368zm-.168-17.64h4.648v-4.088h-4.648z"/><path d="m108.399 33.9092h4.368v-20.72h-4.368z"/><path d="m123.473 34.2452c4.368 0 7.336-2.212 7.7-5.768h-4.368c-.28 1.316-1.54 2.268-3.332 2.268-2.296 0-3.556-1.708-3.696-3.948h11.452c.42-5.404-2.492-8.792-7.532-8.792-5.096 0-8.316 3.136-8.316 8.12s3.108 8.12 8.092 8.12zm-3.36-10.444c.532-1.596 1.68-2.408 3.556-2.408 1.736 0 2.996.98 3.108 2.408z"/><path d="m141.108 34.2452c4.984 0 7.98-3.052 7.98-8.12s-2.996-8.12-7.98-8.12-8.008 3.052-8.008 8.12 3.024 8.12 8.008 8.12zm-3.64-8.12c0-2.884 1.372-4.592 3.64-4.592 2.24 0 3.612 1.708 3.612 4.592s-1.372 4.592-3.612 4.592c-2.268 0-3.64-1.708-3.64-4.592z"/></g></svg>