<svg fill="none" height="48" viewBox="0 0 194 48" width="194" xmlns="http://www.w3.org/2000/svg"><g fill="#fff" opacity=".9"><path d="m33.8807 24c-3.5544 3.9713-8.7198 6.4706-14.4689 6.4706s-10.9145-2.4993-14.46893-6.4706c3.55443-3.9713 8.71983-6.4706 14.46893-6.4706s10.9145 2.4993 14.4689 6.4706z"/><path clip-rule="evenodd" d="m0 36.9412c0-10.7208 8.69094-19.4118 19.4118-19.4118-5.7492 0-10.9145 2.4993-14.46892 6.4706 3.55442 3.9713 8.71982 6.4706 14.46892 6.4706s10.9145-2.4993 14.4689-6.4706c3.0738 3.4343 4.9428 7.9695 4.9428 12.9412v7.3333c0 .953-.7725 1.7255-1.7255 1.7255h-35.37251c-.952962 0-1.72549-.7725-1.72549-1.7255z" fill-rule="evenodd" opacity=".6"/><path clip-rule="evenodd" d="m12.1306 29.0589c-2.7717-1.1223-5.22525-2.8663-7.18772-5.0589 3.55442-3.9713 8.71982-6.4706 14.46892-6.4706s10.9145 2.4993 14.4689 6.4706c3.0738-3.4343 4.9428-7.9695 4.9428-12.9412v-7.33331c0-.95296-.7725-1.72549-1.7255-1.72549h-35.37251c-.95296 0-1.72548928.77253-1.72548936 1.72549l-.00000064 7.33331c-.00000129 8.1459 5.01754 15.12 12.1306 18.0001z" fill-rule="evenodd" opacity=".8"/><path d="m69.1441 14.456v19.544h-3.92v-8.316h-8.372v8.316h-3.92v-19.544h3.92v8.036h8.372v-8.036z"/><path d="m79.8904 34.252c-1.4933 0-2.8373-.3266-4.032-.98-1.1946-.672-2.1373-1.6146-2.828-2.828-.672-1.2133-1.008-2.6133-1.008-4.2 0-1.5866.3454-2.9866 1.036-4.2.7094-1.2133 1.6707-2.1466 2.884-2.8 1.2134-.672 2.5667-1.008 4.06-1.008 1.4934 0 2.8467.336 4.06 1.008 1.2134.6534 2.1654 1.5867 2.856 2.8.7094 1.2134 1.064 2.6134 1.064 4.2 0 1.5867-.364 2.9867-1.092 4.2-.7093 1.2134-1.68 2.156-2.912 2.828-1.2133.6534-2.576.98-4.088.98zm0-3.416c.7094 0 1.372-.168 1.988-.504.6347-.3546 1.1387-.8773 1.512-1.568.3734-.6906.56-1.5306.56-2.52 0-1.4746-.392-2.604-1.176-3.388-.7653-.8026-1.708-1.204-2.828-1.204s-2.0626.4014-2.828 1.204c-.7466.784-1.12 1.9134-1.12 3.388 0 1.4747.364 2.6134 1.092 3.416.7467.784 1.68 1.176 2.8 1.176z"/><path d="m105.502 18.488v15.512h-3.948v-1.96c-.504.672-1.167 1.204-1.9881 1.596-.8027.3734-1.68.56-2.632.56-1.2134 0-2.2867-.252-3.22-.756-.9333-.5226-1.6707-1.2786-2.212-2.268-.5227-1.008-.784-2.2026-.784-3.584v-9.1h3.92v8.54c0 1.232.308 2.184.924 2.856.616.6534 1.456.98 2.52.98 1.0826 0 1.9321-.3266 2.5481-.98.616-.672.924-1.624.924-2.856v-8.54z"/><path d="m113.29 20.896c.504-.8213 1.157-1.4653 1.96-1.932.821-.4666 1.754-.7 2.8-.7v4.116h-1.036c-1.232 0-2.166.2894-2.8.868-.616.5787-.924 1.5867-.924 3.024v7.728h-3.92v-15.512h3.92z"/><path d="m126.766 18.236c1.157 0 2.175.2334 3.052.7.877.448 1.568 1.036 2.072 1.764v-2.212h3.948v15.624c0 1.4374-.289 2.716-.868 3.836-.579 1.1387-1.447 2.0347-2.604 2.688-1.157.672-2.557 1.008-4.2 1.008-2.203 0-4.013-.5133-5.432-1.54-1.4-1.0266-2.193-2.4266-2.38-4.2h3.892c.205.7094.644 1.2694 1.316 1.68.691.4294 1.521.644 2.492.644 1.139 0 2.063-.3453 2.772-1.036.709-.672 1.064-1.6986 1.064-3.08v-2.408c-.504.728-1.204 1.3347-2.1 1.82-.877.4854-1.885.728-3.024.728-1.307 0-2.501-.336-3.584-1.008s-1.941-1.6146-2.576-2.828c-.616-1.232-.924-2.6413-.924-4.228 0-1.568.308-2.9586.924-4.172.635-1.2133 1.484-2.1466 2.548-2.8 1.083-.6533 2.287-.98 3.612-.98zm5.124 8.008c0-.952-.187-1.764-.56-2.436-.373-.6906-.877-1.2133-1.512-1.568-.635-.3733-1.316-.56-2.044-.56s-1.4.1774-2.016.532c-.616.3547-1.12.8774-1.512 1.568-.373.672-.56 1.4747-.56 2.408 0 .9334.187 1.7547.56 2.464.392.6907.896 1.2227 1.512 1.596.635.3734 1.307.56 2.016.56.728 0 1.409-.1773 2.044-.532.635-.3733 1.139-.896 1.512-1.568.373-.6906.56-1.512.56-2.464z"/><path d="m143.586 13.28v20.72h-3.92v-20.72z"/><path d="m146.451 26.188c0-1.568.308-2.9586.924-4.172.635-1.2133 1.484-2.1466 2.548-2.8 1.083-.6533 2.287-.98 3.612-.98 1.158 0 2.166.2334 3.024.7.878.4667 1.578 1.0547 2.1 1.764v-2.212h3.948v15.512h-3.948v-2.268c-.504.728-1.204 1.3347-2.1 1.82-.877.4667-1.894.7-3.052.7-1.306 0-2.501-.336-3.584-1.008-1.064-.672-1.913-1.6146-2.548-2.828-.616-1.232-.924-2.6413-.924-4.228zm12.208.056c0-.952-.186-1.764-.56-2.436-.373-.6906-.877-1.2133-1.512-1.568-.634-.3733-1.316-.56-2.044-.56s-1.4.1774-2.016.532c-.616.3547-1.12.8774-1.512 1.568-.373.672-.56 1.4747-.56 2.408 0 .9334.187 1.7547.56 2.464.392.6907.896 1.2227 1.512 1.596.635.3734 1.307.56 2.016.56.728 0 1.41-.1773 2.044-.532.635-.3733 1.139-.896 1.512-1.568.374-.6906.56-1.512.56-2.464z"/><path d="m172.372 34.252c-1.269 0-2.408-.224-3.416-.672-1.008-.4666-1.811-1.092-2.408-1.876-.579-.784-.896-1.652-.952-2.604h3.948c.075.5974.364 1.092.868 1.484.523.392 1.167.588 1.932.588.747 0 1.325-.1493 1.736-.448.429-.2986.644-.6813.644-1.148 0-.504-.261-.8773-.784-1.12-.504-.2613-1.316-.5413-2.436-.84-1.157-.28-2.109-.5693-2.856-.868-.728-.2986-1.363-.756-1.904-1.372-.523-.616-.784-1.4466-.784-2.492 0-.8586.243-1.6426.728-2.352.504-.7093 1.213-1.2693 2.128-1.68.933-.4106 2.025-.616 3.276-.616 1.848 0 3.323.4667 4.424 1.4 1.101.9147 1.708 2.156 1.82 3.724h-3.752c-.056-.616-.317-1.1013-.784-1.456-.448-.3733-1.055-.56-1.82-.56-.709 0-1.26.1307-1.652.392-.373.2614-.56.6254-.56 1.092 0 .5227.261.924.784 1.204.523.2614 1.335.532 2.436.812 1.12.28 2.044.5694 2.772.868.728.2987 1.353.7654 1.876 1.4.541.616.821 1.4374.84 2.464 0 .896-.252 1.6987-.756 2.408-.485.7094-1.195 1.2694-2.128 1.68-.915.392-1.988.588-3.22.588z"/><path d="m187.63 34.252c-1.27 0-2.408-.224-3.416-.672-1.008-.4666-1.811-1.092-2.408-1.876-.579-.784-.896-1.652-.952-2.604h3.948c.074.5974.364 1.092.868 1.484.522.392 1.166.588 1.932.588.746 0 1.325-.1493 1.736-.448.429-.2986.644-.6813.644-1.148 0-.504-.262-.8773-.784-1.12-.504-.2613-1.316-.5413-2.436-.84-1.158-.28-2.11-.5693-2.856-.868-.728-.2986-1.363-.756-1.904-1.372-.523-.616-.784-1.4466-.784-2.492 0-.8586.242-1.6426.728-2.352.504-.7093 1.213-1.2693 2.128-1.68.933-.4106 2.025-.616 3.276-.616 1.848 0 3.322.4667 4.424 1.4 1.101.9147 1.708 2.156 1.82 3.724h-3.752c-.056-.616-.318-1.1013-.784-1.456-.448-.3733-1.055-.56-1.82-.56-.71 0-1.26.1307-1.652.392-.374.2614-.56.6254-.56 1.092 0 .5227.261.924.784 1.204.522.2614 1.334.532 2.436.812 1.12.28 2.044.5694 2.772.868.728.2987 1.353.7654 1.876 1.4.541.616.821 1.4374.84 2.464 0 .896-.252 1.6987-.756 2.408-.486.7094-1.195 1.2694-2.128 1.68-.915.392-1.988.588-3.22.588z"/></g></svg>