<svg fill="none" height="48" viewBox="0 0 167 48" width="167" xmlns="http://www.w3.org/2000/svg"><g fill="#fff" opacity=".9"><path clip-rule="evenodd" d="m19.7655 3.4479c-.5051-.10387-1.0259-.10387-1.531 0-.5838.12007-1.1056.41233-1.5204.64468l-.1131.06316-14.05947 7.81086c-.03887.0216-.07892.0436-.11996.0662-.43914.2419-.99128.546-1.4153 1.0061-.366595.3979-.644024.8693-.813735 1.383-.19629485.5941-.19399825 1.2245-.19217184 1.7258.00017073.0469.00033726.0926.00033726.137v15.422c0 .0444-.00016653.0902-.00033726.137-.00182641.5014-.00412301 1.1317.19217284 1.7258.169711.5137.447141.9852.813734 1.383.42402.4601.97617.7642 1.4153 1.0061.04104.0226.08109.0447.11996.0663l14.05947 7.8108.1131.0631c.4148.2324.9366.5247 1.5204.6447.5051.1039 1.0259.1039 1.531 0 .5838-.12 1.1056-.4123 1.5204-.6447l.1131-.0631 14.0595-7.8108c.0172-.0096.0346-.0192.0522-.029.0222-.0122.0448-.0247.0677-.0373.4392-.2419.9913-.546 1.4153-1.0061.3666-.3978.6441-.8693.8138-1.383.1963-.5941.194-1.2244.1921-1.7258-.0001-.0468-.0003-.0926-.0003-.137v-15.422c0-.0444.0002-.0901.0003-.137.0019-.5013.0042-1.1317-.1921-1.7258-.1697-.5137-.4472-.9852-.8138-1.383-.424-.4601-.9761-.7642-1.4153-1.0061l-.0015-.0008c-.0405-.0223-.0801-.0441-.1184-.0654l-14.0595-7.81086-.1131-.06317c-.4148-.23235-.9366-.5246-1.5204-.64467zm-1.3191 4.02952c.2879-.15996.4349-.24078.5445-.29366l.0091-.00435.0091.00435c.1096.05288.2566.1337.5445.29366l12.6335 7.01858-13.1872 7.3262-13.18705-7.3261zm-14.64584 10.24758 13.29944 7.3886.0001 14.6524-12.71319-7.0628c-.3039-.1689-.45906-.256-.56792-.3253l-.00919-.0059-.00069-.0109c-.00776-.1288-.00855-.3068-.00855-.6544z" fill-rule="evenodd"/><path d="m55.2911 30.3452h6.048v3.564h-10.665v-18.954h4.617z"/><path d="m65.5933 17.2772c-.81 0-1.476-.234-1.998-.702-.504-.486-.756-1.08-.756-1.782 0-.72.252-1.314.756-1.782.522-.486 1.188-.729 1.998-.729.792 0 1.44.243 1.944.729.522.468.783 1.062.783 1.782 0 .702-.261 1.296-.783 1.782-.504.468-1.152.702-1.944.702zm2.295 1.566v15.066h-4.617v-15.066z"/><path d="m76.6882 18.6272c1.062 0 1.989.216 2.781.648.81.432 1.4309.999 1.8629 1.701v-2.133h4.6171v15.039c0 1.386-.279 2.637-.837 3.753-.54 1.134-1.377 2.034-2.511 2.7-1.116.666-2.511.999-4.185.999-2.232 0-4.0411-.531-5.4271-1.593-1.386-1.044-2.178-2.466-2.376-4.266h4.563c.144.576.4861 1.026 1.0261 1.35.54.342 1.2059.513 1.9979.513.954 0 1.7101-.279 2.2681-.837.576-.54.8639-1.413.8639-2.619v-2.133c-.45.702-1.0709 1.278-1.8629 1.728-.792.432-1.719.648-2.781.648-1.242 0-2.367-.315-3.375-.945-1.008-.648-1.809-1.557-2.403-2.727-.576-1.188-.864-2.556-.864-4.104s.288-2.907.864-4.077c.594-1.17 1.395-2.07 2.403-2.7s2.133-.945 3.375-.945zm4.6439 7.749c0-1.152-.3239-2.061-.9719-2.727-.63-.666-1.4041-.999-2.3221-.999s-1.701.333-2.349.999c-.63.648-.9449 1.548-.9449 2.7s.3149 2.07.9449 2.754c.648.666 1.431.999 2.349.999s1.6921-.333 2.3221-.999c.648-.666.9719-1.575.9719-2.727z"/><path d="m98.2803 18.6812c1.7277 0 3.1137.576 4.1577 1.728 1.044 1.134 1.566 2.7 1.566 4.698v8.802h-4.5897v-8.181c0-1.008-.261-1.791-.783-2.349s-1.224-.837-2.106-.837-1.584.279-2.106.837-.783 1.341-.783 2.349v8.181h-4.617v-19.98h4.617v6.939c.468-.666 1.107-1.197 1.917-1.593s1.719-.594 2.727-.594z"/><path d="m115.34 29.9942v3.915h-2.349c-1.674 0-2.979-.405-3.915-1.215-.936-.828-1.404-2.169-1.404-4.023v-5.994h-1.836v-3.834h1.836v-3.672h4.617v3.672h3.024v3.834h-3.024v6.048c0 .45.108.774.324.972s.576.297 1.08.297z"/><path d="m122.258 20.9762c.432-.702 1.053-1.269 1.863-1.701s1.737-.648 2.781-.648c1.242 0 2.367.315 3.375.945s1.8 1.53 2.376 2.7c.594 1.17.891 2.529.891 4.077s-.297 2.916-.891 4.104c-.576 1.17-1.368 2.079-2.376 2.727-1.008.63-2.133.945-3.375.945-1.062 0-1.989-.207-2.781-.621-.792-.432-1.413-.999-1.863-1.701v2.106h-4.617v-19.98h4.617zm6.588 5.373c0-1.152-.324-2.052-.972-2.7-.63-.666-1.413-.999-2.349-.999-.918 0-1.701.333-2.349.999-.63.666-.945 1.575-.945 2.727s.315 2.061.945 2.727c.648.666 1.431.999 2.349.999s1.701-.333 2.349-.999c.648-.684.972-1.602.972-2.754z"/><path d="m142.555 34.1252c-1.476 0-2.808-.315-3.996-.945-1.17-.63-2.097-1.53-2.781-2.7-.666-1.17-.999-2.538-.999-4.104 0-1.548.342-2.907 1.026-4.077.684-1.188 1.62-2.097 2.808-2.727s2.52-.945 3.996-.945 2.808.315 3.996.945 2.124 1.539 2.808 2.727c.684 1.17 1.026 2.529 1.026 4.077s-.351 2.916-1.053 4.104c-.684 1.17-1.629 2.07-2.835 2.7-1.188.63-2.52.945-3.996.945zm0-3.996c.882 0 1.629-.324 2.241-.972.63-.648.945-1.575.945-2.781s-.306-2.133-.918-2.781c-.594-.648-1.332-.972-2.214-.972-.9 0-1.647.324-2.241.972-.594.63-.891 1.557-.891 2.781 0 1.206.288 2.133.864 2.781.594.648 1.332.972 2.214.972z"/><path d="m161.528 33.9092-2.889-4.185-2.43 4.185h-4.995l4.968-7.695-5.103-7.371h5.184l2.889 4.158 2.43-4.158h4.995l-5.049 7.587 5.184 7.479z"/></g></svg>