<svg fill="none" height="48" viewBox="0 0 175 48" width="175" xmlns="http://www.w3.org/2000/svg"><g fill="#fff" opacity=".9"><path d="m14.778 19.4497c5.7609-2.7552 10.2694-7.4307 12.8577-13.27513-1.6699-1.75332-3.8406-3.00569-6.1784-3.75711l-1.2524-.41746c-.0835.16698-.167.41747-.167.58445-2.0037 5.67742-6.0948 10.26945-11.60526 12.85765-3.84061 1.8368-6.67932 5.1765-8.015183 9.1841l-.417457 1.2524c.166983.0834.417461.1669.584444.1669 1.586336.5845 3.172676 1.3359 4.675516 2.2543 2.08729-3.7571 5.42694-6.9298 9.51804-8.8501z"/><path d="m38.9906 19.7837c-3.0892 4.6755-7.3473 8.4326-12.6072 10.9374-4.2581 2.0038-7.5143 5.7609-9.0171 10.2694l-.4175 1.4194c1.5864 1.4193 3.5067 2.5047 5.5939 3.1727l1.2524.4174c.0835-.167.167-.4174.167-.5844 2.0038-5.6774 6.0949-10.2695 11.6053-12.8577 3.8406-1.8368 6.7628-5.1765 8.0152-9.1841l.4174-1.2523c-1.7533-.501-3.4231-1.3359-5.0094-2.3378z" opacity=".8"/><path d="m13.6092 38.0682c2.0873-5.0095 5.9279-9.1006 10.8539-11.4384 4.5085-2.1708 8.2656-5.5104 10.8539-9.6015-1.9204-1.8368-3.5067-3.9241-4.6756-6.4288-3.0892 5.6774-7.9317 10.2694-13.8595 13.1081-3.4232 1.5864-6.1784 4.3416-7.84825 7.6812 1.83685 1.7534 3.33965 3.9241 4.50855 6.3454 0 0 .0835.167.167.334z" opacity=".9"/><path d="m53.95 34h14.07v-3.9h-9.54v-17.1h-4.53z"/><path d="m82.7198 18.88h-4.2v8.28c0 1.92-1.29 3.36-3.12 3.36-1.71 0-2.91-1.32-2.91-3.15v-8.49h-4.17v9.42c0 3.45 2.22 5.94 5.61 5.94 2.07 0 3.75-.9 4.59-2.34v2.1h4.2z"/><path d="m84.28 34h4.2v-8.58c0-1.95 1.11-3.24 2.85-3.24 1.62 0 2.64 1.29 2.64 3.24v8.58h4.2v-8.58c0-1.95 1.11-3.24 2.85-3.24 1.62 0 2.67 1.29 2.67 3.24v8.58h4.17v-9.9c0-3.03-2.13-5.46-5.43-5.46-2.43 0-4.32 1.29-5.04 2.76-.72-1.8-2.25-2.76-4.62-2.76-2.04 0-3.48.99-4.29 2.37v-2.13h-4.2z"/><path d="m109.291 12.31v4.41h4.44v-4.41zm.12 21.69h4.2v-15.12h-4.2z"/><path d="m115.176 34h4.201v-8.28c0-1.95 1.289-3.36 3.119-3.36 1.74 0 2.911 1.32 2.911 3.15v8.49h4.199v-9.42c0-3.48-2.22-5.94-5.64-5.94-2.07 0-3.749.87-4.589 2.34v-2.1h-4.201z"/><path d="m138.367 34.24c4.65 0 7.98-3.3 7.98-7.8s-3.33-7.8-7.98-7.8-7.98 3.3-7.98 7.8 3.33 7.8 7.98 7.8zm0-3.6c-2.25 0-3.78-1.71-3.78-4.2 0-2.52 1.53-4.23 3.78-4.23s3.78 1.71 3.78 4.23c0 2.49-1.53 4.2-3.78 4.2z"/><path d="m161.558 18.88h-4.2v8.28c0 1.92-1.29 3.36-3.12 3.36-1.71 0-2.91-1.32-2.91-3.15v-8.49h-4.17v9.42c0 3.45 2.22 5.94 5.61 5.94 2.07 0 3.75-.9 4.59-2.34v2.1h4.2z"/><path d="m168.638 34.24c3.54 0 5.88-1.89 5.88-4.77 0-6.84-8.28-3.33-8.28-6.42 0-.96.81-1.47 1.98-1.47 1.14 0 2.31.69 2.49 1.98h3.63c-.15-2.97-2.61-4.92-6.24-4.92-3.09 0-5.4 1.89-5.4 4.56 0 6.36 8.13 3.33 8.13 6.42 0 .84-.9 1.47-2.19 1.47-1.56 0-2.61-.84-2.76-2.19h-3.6c.15 3.27 2.67 5.34 6.36 5.34z"/></g></svg>