<svg fill="none" height="48" viewBox="0 0 179 48" width="179" xmlns="http://www.w3.org/2000/svg"><g fill="#fff" opacity=".9"><path d="m25.8001 35.7873c-3.5-1.3-7.1-1.5-10.4-.6-2.3.6-4.5 1.8-6.49998 3.3l-1.40003 1.2-.39999.4.89999.8c.1 0 .10001.1.20001.2.2.2.40002.3.70002.5l.59997.4.60001-.5c.1-.1.3-.3.5-.4 1.8-1.5 3.8-2.5 5.9-3 2.7-.7 5.6-.6 8.5.5 2.4.9 7.3 2 13.2-.5l.2-.1.3-.3c0-.1.1-.1.2-.2.5-.6 1-1.2 1.4-1.9l2-3.1-3.2 1.8c-4.7 2.6-9 3.1-13.3 1.5z"/><path d="m12.1 24.9876c2.7-.7 5.6-.6 8.5.5 3.2 1.2 11.4 2.9 20.6-5.4l1.5-1.5.1-.1.4-.4-.2-.5c-.1-.4-.3-.9-.5-1.4l-.5-1.4-1 1c-.1.2-.3.3-.5.5-4.4 4.5-11.2 9.1-19 6.3-3.5-1.3-7.1-1.5-10.4-.6-3.19999.9-6 2.6-8.6 5v-.1l-1.5 1.6c0 .1-.099982.1-.199982.2l-.300018.3.100006.4c.1.5.299994 1 .399994 1.5l.60001 1.6 1-1.3c.1-.2.29999-.3.39999-.5 2.1-1.9 5.00001-4.6 9.1-5.7z"/><path d="m2.40002 23.1874c2.3-2.4 4.89999-3.9 7.69998-4.7 2.7-.7 5.6-.6 8.5.5 9 3.3 16.8-2.1 20.2-5l1.3-1.3.5-.4-.4-.6c-.3-.3-.5-.7-.8-1.1l-.6-.79999-.7.69999c-.1.1-.3.3-.4.4-4.2 4-10.7 8.1-18.1 5.3-3.5-1.3-7.1-1.5-10.39999-.6-2.1.6-4.1 1.6-6.1 2.9l-2.10001 1.7c-.2.2-.3.3-.5.5l-.199982.2v.3c-.1.7-.100012 1.4-.200012 2l-.100006 2.5 1.70001-1.8c.2-.2.40001-.5.70001-.7z"/><path d="m28.7 42.5874-.2.6.2-.6c-.3-.1-.5-.2-.8-.3-3.5-1.3-7.1-1.5-10.4-.6-.7.2-1.4.4-2.1.7l-2.4 1.1-.6.3 2 .7c.6.2 1.2.4 1.8.6l.3.1.3-.1c.3-.1.6-.3.9-.3.2 0 .4-.1.6-.2 2.4-.6 5-.6 7.8.3.3.1.5.2.8.3l.5.2.3-.1c.7-.2 1.5-.4 2.1-.7l2.8-1-2.9-.7c-.3-.1-.7-.2-1-.3z"/><path d="m44 21.8875-1.5 1.5c-.2.2-.3999.4-.5999.6-4.1 3.9-10.7001 8.1-18.1001 5.3-3.5-1.3-7.0999-1.5-10.3999-.6-3.1.9-5.90007 2.5-8.40007 4.9l-1.29999 1.4-.39999.5.39999.6c.3.4.50001.7.70001 1.1l.59998.9.70001-.9.4-.4c2.4-2.6 4.99996-4.2 7.99996-5 2.7-.7 5.6-.6 8.5.5 2.5.9 5.1 1.2 7.7.9 4.6-.5 9.2001-3.1 12.6001-6 .2-.2.3999-.3.5999-.5l.3-.3v-.3c0-.6.1001-1.3.1001-1.9z"/><path d="m6.00018 12.6877-.29998-.6001.29998.6001c.6-.3 1.30003-.5001 1.90003-.7001 2.69999-.7 5.59999-.6 8.49999.5 1.9.7 3.8 1 5.9 1 4.2 0 8.4-1.5 12.3-4.39995l1.5-1.20002.5-.39999-.9-.70001c-.3-.3-.7-.59999-1.1-.79999l-.6-.39999-.5.39999c-.2.1-.3.29999-.5.39999-5.3 3.99997-10.6 5.09997-15.6 3.20002-3.6-1.3-7.2-1.6-10.80001-.5-.3.1-.6.19998-1 .29998l-.19998.10001-.30002.29999c0 .1-.09998.10001-.19998.20001-.4.59996-.90002 1.10006-1.30002 1.70006l-1.89999 2.8999 3.1-1.6c.5 0 .89998-.1999 1.19998-.2999z"/><path d="m14.2 5.88748.3.10001c1.3.5 3.3 1 5.8 1 2.6 0 5.1-.60001 7.6-1.60001l3.1-1.5-2.1-.69998c-.6-.2-1.2-.4-1.9-.5h-.3l-.3.09998c-.3.1-.6.30002-.9.40002-3 1.1-6 1.3-8.9.5-.3-.1-.6-.20002-.9-.30002l-.3-.1-.3.1c-.6.2-1.2.40001-1.8.70001l-2.3 1 2.4.69999c.2-.1.5 0 .8.1z"/><path d="m61.2798 33.9092h-4.6136l7.0298-20.3637h5.5483l7.0199 20.3637h-4.6136l-5.1009-15.7103h-.1591zm-.2883-8.0043h10.8977v3.3608h-10.8977z"/><path d="m82.8715 13.5455v20.3637h-4.2358v-20.3637z"/><path d="m94.3881 18.6364v3.1819h-9.1974v-3.1819zm-7.1093-3.659h4.2358v14.2386c0 .3911.0596.696.1789.9148.1194.2121.2851.3612.4972.4474.2188.0862.4706.1293.7557.1293.1988 0 .3977-.0166.5966-.0497.1988-.0398.3513-.0696.4574-.0895l.6662 3.152c-.2122.0662-.5105.1425-.8949.2286-.3845.0929-.8518.1492-1.402.1691-1.0209.0398-1.9157-.0961-2.6847-.4077-.7623-.3115-1.3556-.7954-1.7798-1.4517-.4243-.6562-.6331-1.4848-.6264-2.4858z"/><path d="m102.728 32.8055v-14.0796h3.56v14.0796zm-5.26-5.26v-3.5596h14.08v3.5596z"/><path d="m126.84 19.4021c-.079-.8021-.421-1.4252-1.024-1.8693-.603-.4442-1.422-.6662-2.456-.6662-.703 0-1.296.0994-1.78.2983-.484.1922-.855.4607-1.113.8054-.252.3447-.378.7358-.378 1.1733-.013.3645.063.6827.228.9545.173.2718.408.5071.706.706.299.1922.643.3612 1.035.5071.391.1392.808.2585 1.252.3579l1.83.4375c.888.1989 1.704.464 2.446.7955.742.3314 1.385.7391 1.929 1.223.543.4839.964 1.054 1.263 1.7102.305.6563.46 1.4086.467 2.2571-.007 1.2462-.325 2.3267-.955 3.2415-.623.9081-1.524 1.6141-2.704 2.1179-1.173.4971-2.589.7457-4.246.7457-1.644 0-3.076-.2519-4.295-.7557-1.213-.5037-2.161-1.2495-2.844-2.2372-.676-.9943-1.031-2.2239-1.064-3.6889h4.166c.047.6828.242 1.2529.587 1.7102.351.4508.819.7922 1.402 1.0242.59.2254 1.256.3381 1.998.3381.73 0 1.363-.1061 1.9-.3182.543-.2121.964-.5071 1.262-.885.299-.3778.448-.812.448-1.3025 0-.4574-.136-.8419-.408-1.1534-.265-.3116-.656-.5767-1.173-.7955-.511-.2187-1.137-.4176-1.879-.5966l-2.218-.5568c-1.717-.4176-3.072-1.0706-4.066-1.9588-.995-.8883-1.489-2.0848-1.482-3.5895-.007-1.233.322-2.3101.984-3.2315.67-.9214 1.588-1.6407 2.755-2.1577 1.166-.517 2.492-.7756 3.977-.7756 1.511 0 2.83.2586 3.957.7756 1.134.517 2.015 1.2363 2.645 2.1577s.955 1.9886.975 3.2017z"/><path d="m138.297 25.0796v8.8296h-4.236v-20.3637h4.117v7.7856h.179c.345-.9016.901-1.6075 1.67-2.1179.769-.5171 1.734-.7756 2.894-.7756 1.06 0 1.985.232 2.774.696.795.4574 1.412 1.117 1.849 1.9787.445.8551.663 1.8793.657 3.0724v9.7245h-4.236v-8.9688c.006-.9413-.232-1.6737-.716-2.1974-.477-.5237-1.147-.7855-2.009-.7855-.576 0-1.087.1226-1.531.3679-.437.2452-.782.6032-1.034 1.0738-.245.464-.371 1.0242-.378 1.6804z"/><path d="m151.534 33.9092v-15.2728h4.236v15.2728zm2.128-17.2415c-.63 0-1.17-.2088-1.621-.6264-.444-.4243-.666-.9314-.666-1.5213 0-.5834.222-1.0838.666-1.5014.451-.4243.991-.6364 1.621-.6364s1.167.2121 1.611.6364c.45.4176.676.918.676 1.5014 0 .5899-.226 1.097-.676 1.5213-.444.4176-.981.6264-1.611.6264z"/><path d="m168.89 18.6364v3.1819h-10.94v-3.1819zm-8.782 15.2728v-16.3764c0-1.1071.215-2.0251.646-2.7543.437-.7292 1.034-1.276 1.79-1.6406.755-.3646 1.614-.5469 2.575-.5469.65 0 1.243.0497 1.78.1491.543.0995.948.189 1.213.2685l-.756 3.1818c-.166-.053-.371-.1027-.616-.1491-.239-.0464-.484-.0696-.736-.0696-.623 0-1.057.1458-1.303.4375-.245.285-.368.6861-.368 1.2031v16.2969z"/><path d="m178.087 18.6364v3.1819h-9.197v-3.1819zm-7.109-3.659h4.236v14.2386c0 .3911.059.696.179.9148.119.2121.285.3612.497.4474.219.0862.471.1293.756.1293.198 0 .397-.0166.596-.0497.199-.0398.352-.0696.458-.0895l.666 3.152c-.212.0662-.511.1425-.895.2286-.385.0929-.852.1492-1.402.1691-1.021.0398-1.916-.0961-2.685-.4077-.762-.3115-1.355-.7954-1.78-1.4517-.424-.6562-.633-1.4848-.626-2.4858z"/></g></svg>