<svg fill="none" height="48" viewBox="0 0 178 48" width="178" xmlns="http://www.w3.org/2000/svg"><g opacity=".9"><circle cx="20" cy="24" r="17" stroke="#fff" stroke-width="6"/><g fill="#fff"><path d="m66.184 20.4132c0 1.0453-.252 2.0253-.756 2.94-.4853.9146-1.26 1.652-2.324 2.212-1.0453.56-2.3707.84-3.976.84h-3.276v7.504h-3.92v-19.544h7.196c1.512 0 2.8.2613 3.864.784 1.064.5226 1.8573 1.2413 2.38 2.156.5413.9146.812 1.9506.812 3.108zm-7.224 2.828c1.0827 0 1.8853-.2427 2.408-.728.5227-.504.784-1.204.784-2.1 0-1.904-1.064-2.856-3.192-2.856h-3.108v5.684z"/><path d="m74.7352 34.1612c-1.4934 0-2.8374-.3267-4.032-.98-1.1947-.672-2.1374-1.6147-2.828-2.828-.672-1.2134-1.008-2.6134-1.008-4.2 0-1.5867.3453-2.9867 1.036-4.2.7093-1.2134 1.6706-2.1467 2.884-2.8 1.2133-.672 2.5666-1.008 4.06-1.008 1.4933 0 2.8466.336 4.06 1.008 1.2133.6533 2.1653 1.5866 2.856 2.8.7093 1.2133 1.064 2.6133 1.064 4.2 0 1.5866-.364 2.9866-1.092 4.2-.7094 1.2133-1.68 2.156-2.912 2.828-1.2134.6533-2.576.98-4.088.98zm0-3.416c.7093 0 1.372-.168 1.988-.504.6346-.3547 1.1386-.8774 1.512-1.568.3733-.6907.56-1.5307.56-2.52 0-1.4747-.392-2.604-1.176-3.388-.7654-.8027-1.708-1.204-2.828-1.204s-2.0627.4013-2.828 1.204c-.7467.784-1.12 1.9133-1.12 3.388 0 1.4746.364 2.6133 1.092 3.416.7466.784 1.68 1.176 2.8 1.176z"/><path d="m88.5026 13.1892v20.72h-3.92v-20.72z"/><path d="m106.096 18.3972-9.6044 22.848h-4.172l3.36-7.728-6.216-15.12h4.396l4.004 10.836 4.0604-10.836z"/><path d="m126.353 18.1732c1.904 0 3.434.588 4.592 1.764 1.176 1.1573 1.764 2.7813 1.764 4.872v9.1h-3.92v-8.568c0-1.2134-.308-2.1374-.924-2.772-.616-.6534-1.456-.98-2.52-.98s-1.914.3266-2.548.98c-.616.6346-.924 1.5586-.924 2.772v8.568h-3.92v-8.568c0-1.2134-.308-2.1374-.924-2.772-.616-.6534-1.456-.98-2.52-.98-1.083 0-1.942.3266-2.576.98-.616.6346-.924 1.5586-.924 2.772v8.568h-3.92v-15.512h3.92v1.876c.504-.6534 1.148-1.1667 1.932-1.54.802-.3734 1.68-.56 2.632-.56 1.213 0 2.296.2613 3.248.784.952.504 1.689 1.232 2.212 2.184.504-.896 1.232-1.6147 2.184-2.156.97-.5414 2.016-.812 3.136-.812z"/><path d="m134.301 26.0972c0-1.568.308-2.9587.924-4.172.634-1.2134 1.484-2.1467 2.548-2.8 1.082-.6534 2.286-.98 3.612-.98 1.157 0 2.165.2333 3.024.7.877.4666 1.577 1.0546 2.1 1.764v-2.212h3.948v15.512h-3.948v-2.268c-.504.728-1.204 1.3346-2.1 1.82-.878.4666-1.895.7-3.052.7-1.307 0-2.502-.336-3.584-1.008-1.064-.672-1.914-1.6147-2.548-2.828-.616-1.232-.924-2.6414-.924-4.228zm12.208.056c0-.952-.187-1.764-.56-2.436-.374-.6907-.878-1.2134-1.512-1.568-.635-.3734-1.316-.56-2.044-.56s-1.4.1773-2.016.532c-.616.3546-1.12.8773-1.512 1.568-.374.672-.56 1.4746-.56 2.408 0 .9333.186 1.7546.56 2.464.392.6906.896 1.2226 1.512 1.596.634.3733 1.306.56 2.016.56.728 0 1.409-.1774 2.044-.532.634-.3734 1.138-.896 1.512-1.568.373-.6907.56-1.512.56-2.464z"/><path d="m157.729 21.6172v7.504c0 .5226.121.9053.364 1.148.261.224.691.336 1.288.336h1.82v3.304h-2.464c-3.304 0-4.956-1.6054-4.956-4.816v-7.476h-1.848v-3.22h1.848v-3.836h3.948v3.836h3.472v3.22z"/><path d="m171.637 18.1732c1.176 0 2.221.2613 3.136.784.914.504 1.624 1.26 2.128 2.268.522.9893.784 2.184.784 3.584v9.1h-3.92v-8.568c0-1.232-.308-2.1747-.924-2.828-.616-.672-1.456-1.008-2.52-1.008-1.083 0-1.942.336-2.576 1.008-.616.6533-.924 1.596-.924 2.828v8.568h-3.92v-20.72h3.92v7.14c.504-.672 1.176-1.1947 2.016-1.568.84-.392 1.773-.588 2.8-.588z"/></g></g></svg>