<svg fill="none" height="48" viewBox="0 0 187 48" width="187" xmlns="http://www.w3.org/2000/svg"><g fill="#fff" opacity=".9"><path clip-rule="evenodd" d="m22 36.4667c6.8851 0 12.4667-5.5816 12.4667-12.4667 0-6.8852-5.5816-12.4667-12.4667-12.4667-6.8852 0-12.46667 5.5815-12.46667 12.4667 0 6.8851 5.58147 12.4667 12.46667 12.4667zm0 9.5333c12.1503 0 22-9.8497 22-22s-9.8497-22-22-22c-12.15027 0-22 9.8497-22 22s9.84973 22 22 22z" fill-rule="evenodd" opacity=".8"/><path d="m22.2516 24.4817c2.2911-2.2911 6.0056-2.2911 8.2967 0l11.408 11.408c2.2911 2.291 2.2911 6.0056 0 8.2967-2.2911 2.2911-6.0056 2.2911-8.2967 0l-11.408-11.408c-2.2911-2.2911-2.2911-6.0057 0-8.2967z" opacity=".6"/><path d="m25.4548 35.9817 7.2454 7.2454c3.4752-1.9382 6.3705-4.7912 8.3601-8.2333l-7.186-7.186c-1.2622 3.9394-4.4304 7.0258-8.4195 8.1739z"/><path d="m79.52 36.1c-.6347.784-1.4094 1.3813-2.324 1.792-.896.4107-1.8854.616-2.968.616-1.456 0-2.772-.3173-3.948-.952-1.176-.616-2.52-1.7173-4.032-3.304-1.7734-.224-3.36-.7933-4.76-1.708-1.3814-.9147-2.464-2.0907-3.248-3.528-.7654-1.456-1.148-3.0613-1.148-4.816 0-1.9227.4573-3.6493 1.372-5.18.9333-1.5493 2.212-2.7627 3.836-3.64 1.6426-.8773 3.4813-1.316 5.516-1.316 2.0346 0 3.864.4387 5.488 1.316s2.9026 2.0907 3.836 3.64c.9333 1.5307 1.4 3.2573 1.4 5.18 0 2.2773-.644 4.2747-1.932 5.992-1.2694 1.7173-2.9587 2.912-5.068 3.584.4666.4853.9146.8307 1.344 1.036.448.224.924.336 1.428.336 1.2133 0 2.2773-.4853 3.192-1.456zm-17.836-11.9c0 1.2133.2613 2.296.784 3.248.5413.952 1.2786 1.6987 2.212 2.24.9333.5227 1.9786.784 3.136.784 1.1573 0 2.2026-.2613 3.136-.784.9333-.5413 1.6613-1.288 2.184-2.24.5413-.952.812-2.0347.812-3.248s-.2707-2.296-.812-3.248c-.5227-.952-1.2507-1.6893-2.184-2.212-.9334-.5413-1.9787-.812-3.136-.812-1.1574 0-2.2027.2707-3.136.812-.9334.5227-1.6707 1.26-2.212 2.212-.5227.952-.784 2.0347-.784 3.248z"/><path d="m96.817 18.936v15.064h-4.144v-1.792c-.5787.6533-1.2694 1.1573-2.072 1.512-.8027.336-1.6707.504-2.604.504-1.9787 0-3.5467-.5693-4.704-1.708-1.1574-1.1387-1.736-2.828-1.736-5.068v-8.512h4.368v7.868c0 2.4267 1.0173 3.64 3.052 3.64 1.0453 0 1.8853-.336 2.52-1.008.6346-.6907.952-1.708.952-3.052v-7.448z"/><path d="m108.032 34.224c-1.587 0-3.015-.3267-4.284-.98-1.251-.672-2.231-1.596-2.94-2.772-.71-1.176-1.0644-2.5107-1.0644-4.004s.3544-2.828 1.0644-4.004c.709-1.176 1.689-2.0907 2.94-2.744 1.269-.672 2.697-1.008 4.284-1.008 1.586 0 3.005.336 4.256 1.008 1.25.6533 2.23 1.568 2.94 2.744.709 1.176 1.064 2.5107 1.064 4.004s-.355 2.828-1.064 4.004c-.71 1.176-1.69 2.1-2.94 2.772-1.251.6533-2.67.98-4.256.98zm0-3.584c1.12 0 2.034-.3733 2.744-1.12.728-.7653 1.092-1.7827 1.092-3.052s-.364-2.2773-1.092-3.024c-.71-.7653-1.624-1.148-2.744-1.148s-2.044.3827-2.772 1.148c-.728.7467-1.092 1.7547-1.092 3.024s.364 2.2867 1.092 3.052c.728.7467 1.652 1.12 2.772 1.12z"/><path d="m128.927 33.272c-.429.3173-.961.56-1.596.728-.616.1493-1.269.224-1.96.224-1.792 0-3.182-.4573-4.172-1.372-.97-.9147-1.456-2.2587-1.456-4.032v-6.188h-2.324v-3.36h2.324v-3.668h4.368v3.668h3.752v3.36h-3.752v6.132c0 .6347.159 1.1293.476 1.484.336.336.803.504 1.4.504.691 0 1.279-.1867 1.764-.56z"/><path d="m131.379 18.936h4.368v15.064h-4.368zm2.184-2.1c-.802 0-1.456-.2333-1.96-.7s-.756-1.0453-.756-1.736.252-1.2693.756-1.736 1.158-.7 1.96-.7c.803 0 1.456.224 1.96.672s.756 1.008.756 1.68c0 .728-.252 1.3347-.756 1.82-.504.4667-1.157.7-1.96.7z"/><path d="m154.557 26.524c0 .056-.028.448-.084 1.176h-11.396c.205.9333.691 1.6707 1.456 2.212s1.717.812 2.856.812c.784 0 1.475-.112 2.072-.336.616-.2427 1.185-.616 1.708-1.12l2.324 2.52c-1.419 1.624-3.491 2.436-6.216 2.436-1.699 0-3.201-.3267-4.508-.98-1.307-.672-2.315-1.596-3.024-2.772s-1.064-2.5107-1.064-4.004c0-1.4747.345-2.8 1.036-3.976.709-1.1947 1.671-2.1187 2.884-2.772 1.232-.672 2.604-1.008 4.116-1.008 1.475 0 2.809.3173 4.004.952s2.128 1.5493 2.8 2.744c.691 1.176 1.036 2.548 1.036 4.116zm-7.812-4.508c-.989 0-1.82.28-2.492.84s-1.083 1.3253-1.232 2.296h7.42c-.149-.952-.56-1.708-1.232-2.268-.672-.5787-1.493-.868-2.464-.868z"/><path d="m166.621 18.712c1.867 0 3.37.56 4.508 1.68 1.158 1.12 1.736 2.7813 1.736 4.984v8.624h-4.368v-7.952c0-1.1947-.261-2.0813-.784-2.66-.522-.5973-1.278-.896-2.268-.896-1.101 0-1.978.3453-2.632 1.036-.653.672-.98 1.68-.98 3.024v7.448h-4.368v-15.064h4.172v1.764c.579-.6347 1.298-1.12 2.156-1.456.859-.3547 1.802-.532 2.828-.532z"/><path d="m186.541 33.272c-.43.3173-.962.56-1.596.728-.616.1493-1.27.224-1.96.224-1.792 0-3.183-.4573-4.172-1.372-.971-.9147-1.456-2.2587-1.456-4.032v-6.188h-2.324v-3.36h2.324v-3.668h4.368v3.668h3.752v3.36h-3.752v6.132c0 .6347.158 1.1293.476 1.484.336.336.802.504 1.4.504.69 0 1.278-.1867 1.764-.56z"/></g></svg>