<svg fill="none" height="48" viewBox="0 0 177 48" width="177" xmlns="http://www.w3.org/2000/svg"><g fill="#fff" opacity=".9"><path d="m13.5809 3.67464c2.6692-1.10553 5.5301-1.67464 8.4191-1.67464v11c-1.4446 0-2.875.2845-4.2095.8374-1.3346.5527-2.5473 1.363-3.5687 2.3844s-1.8317 2.2341-2.3844 3.5687c-.5529 1.3345-.8374 2.7649-.8374 4.2095h-11c0-2.889.569108-5.7499 1.67464-8.4191 1.10566-2.6692 2.72611-5.0943 4.76897-7.13729 2.04299-2.04286 4.46809-3.66331 7.13729-4.76897z"/><path d="m0 24c0 2.889.569108 5.7499 1.67464 8.4191 1.10566 2.6692 2.72611 5.0943 4.76897 7.1373 2.04298 2.0428 4.46809 3.6633 7.13729 4.769 2.6692 1.1055 5.5301 1.6746 8.4191 1.6746s5.7499-.5691 8.4191-1.6746c2.6692-1.1057 5.0943-2.7262 7.1373-4.769 2.0428-2.043 3.6633-4.4681 4.769-7.1373 1.1055-2.6692 1.6746-5.5301 1.6746-8.4191h-11c0 1.4446-.2845 2.875-.8374 4.2095-.5527 1.3346-1.363 2.5473-2.3844 3.5687s-2.2341 1.8317-3.5687 2.3844c-1.3345.5529-2.7649.8374-4.2095.8374s-2.875-.2845-4.2095-.8374c-1.3346-.5527-2.5473-1.363-3.5687-2.3844s-1.8317-2.2341-2.3844-3.5687c-.5529-1.3345-.8374-2.7649-.8374-4.2095z" opacity=".8"/><path d="m22 17c-3.866 0-7 3.134-7 7h14c0-3.866-3.134-7-7-7z" opacity=".8"/><path d="m22 31c-3.866 0-7-3.134-7-7h14c0 3.866-3.134 7-7 7z"/><path d="m66.8168 19.4021c-.0796-.8021-.421-1.4252-1.0242-1.8694-.6032-.4441-1.4218-.6661-2.4559-.6661-.7027 0-1.296.0994-1.7799.2982-.4839.1923-.8551.4607-1.1136.8054-.2519.3447-.3778.7358-.3778 1.1733-.0133.3646.0629.6828.2286.9546.1724.2718.4077.5071.706.706.2983.1922.643.3612 1.0341.5071.3911.1392.8087.2585 1.2528.3579l1.8296.4375c.8882.1989 1.7036.464 2.446.7955.7424.3314 1.3854.7391 1.929 1.223.5435.4839.9645 1.054 1.2628 1.7102.3049.6563.4607 1.4086.4673 2.2571-.0066 1.2462-.3248 2.3267-.9545 3.2415-.6231.9081-1.5247 1.6141-2.7046 2.1179-1.1733.4971-2.5885.7457-4.2457.7457-1.644 0-3.0758-.2519-4.2955-.7557-1.2131-.5038-2.161-1.2495-2.8437-2.2372-.6762-.9943-1.0308-2.2239-1.064-3.6889h4.1662c.0464.6828.242 1.2528.5867 1.7102.3513.4508.8186.7922 1.402 1.0242.5899.2254 1.2561.338 1.9986.338.7291 0 1.3622-.106 1.8991-.3181.5436-.2122.9645-.5071 1.2628-.885.2983-.3778.4474-.812.4474-1.3025 0-.4574-.1359-.8419-.4076-1.1534-.2652-.3116-.6563-.5768-1.1733-.7955-.5105-.2188-1.1369-.4176-1.8793-.5966l-2.2173-.5568c-1.7169-.4176-3.0725-1.0706-4.0668-1.9588-.9943-.8883-1.4881-2.0848-1.4815-3.5895-.0066-1.233.3215-2.3101.9844-3.2315.6695-.9214 1.5875-1.6407 2.7542-2.1577 1.1667-.5171 2.4924-.7756 3.9773-.7756 1.5114 0 2.8305.2585 3.9574.7756 1.1335.517 2.0151 1.2363 2.6449 2.1577.6297.9214.9545 1.9886.9744 3.2017z"/><path d="m80.9982 34.2075c-1.571 0-2.9233-.3182-4.0568-.9546-1.1269-.643-1.9952-1.5511-2.6051-2.7244-.6098-1.1799-.9148-2.5753-.9148-4.1861 0-1.571.305-2.9498.9148-4.1364.6099-1.1865 1.4683-2.1112 2.5753-2.7741 1.1136-.6629 2.4195-.9943 3.9176-.9943 1.0076 0 1.9456.1624 2.8139.4872.875.3182 1.6373.7988 2.287 1.4418.6562.6429 1.1666 1.4517 1.5312 2.4261.3646.9678.5469 2.1013.5469 3.4006v1.1633h-12.8963v-2.625h8.9091c0-.6098-.1326-1.1501-.3978-1.6207-.2651-.4707-.633-.8386-1.1037-1.1037-.464-.2718-1.0042-.4077-1.6207-.4077-.643 0-1.2131.1492-1.7102.4474-.4906.2917-.875.6861-1.1534 1.1833-.2784.4905-.421 1.0374-.4276 1.6406v2.4958c0 .7556.1392 1.4086.4176 1.9588.2851.5501.6861.9744 1.2031 1.2727.5171.2983 1.1303.4474 1.8395.4474.4707 0 .9016-.0663 1.2927-.1988.3911-.1326.7258-.3315 1.0042-.5966.2784-.2652.4905-.59.6364-.9745l3.9176.2586c-.1989.9413-.6065 1.7632-1.223 2.4659-.6099.696-1.3987 1.2396-2.3665 1.6307-.9612.3844-2.0715.5767-3.331.5767z"/><path d="m97.6531 39.9546c-1.3722 0-2.5488-.1889-3.5299-.5667-.9744-.3713-1.75-.8784-2.3267-1.5213-.5767-.643-.9512-1.3656-1.1235-2.1677l3.9176-.5269c.1193.3049.3082.5899.5667.8551.2585.2651.5999.4772 1.0242.6363.4308.1657.9545.2486 1.571.2486.9214 0 1.6804-.2254 2.2765-.6761.604-.4442.905-1.1899.905-2.2372v-2.7941h-.179c-.185.4243-.464.8253-.8349 1.2031-.3712.3779-.8485.6861-1.4318.9248-.5833.2386-1.2794.3579-2.0881.3579-1.1468 0-2.1908-.2651-3.1321-.7954-.9346-.537-1.6804-1.3556-2.2372-2.456-.5502-1.107-.8253-2.5057-.8253-4.196 0-1.7301.2817-3.1752.8452-4.3353.5634-1.16 1.3125-2.0284 2.2472-2.6051.9412-.5767 1.972-.865 3.0923-.865.8551 0 1.571.1458 2.1477.4375.5767.285 1.0407.643 1.3921 1.0738.3579.4243.6329.8419.8249 1.2529h.159v-2.5654h4.206v15.4219c0 1.2993-.318 2.3864-.954 3.2614-.637.875-1.518 1.5312-2.645 1.9687-1.12.4442-2.4096.6662-3.8679.6662zm.0895-9.446c.6827 0 1.2594-.169 1.7301-.5071.4772-.3447.8423-.8352 1.0933-1.4716.259-.643.388-1.4119.388-2.3068s-.126-1.6705-.378-2.3267c-.252-.6629-.6161-1.1766-1.0934-1.5412s-1.0573-.5469-1.74-.5469c-.6961 0-1.2827.1889-1.76.5668-.4773.3712-.8385.8882-1.0838 1.5511s-.3679 1.4285-.3679 2.2969c0 .8816.1226 1.6439.3679 2.2869.2519.6364.6132 1.1302 1.0838 1.4816.4773.3446 1.0639.517 1.76.517z"/><path d="m108.491 33.9092v-15.2728h4.037v2.6946h.179c.318-.8948.849-1.6008 1.591-2.1179.742-.517 1.631-.7755 2.665-.7755 1.047 0 1.939.2618 2.674.7855.736.517 1.227 1.2197 1.472 2.1079h.159c.312-.875.875-1.5743 1.69-2.098.822-.5303 1.794-.7954 2.914-.7954 1.425 0 2.582.454 3.47 1.3622.895.9015 1.342 2.1809 1.342 3.8381v10.2713h-4.226v-9.4361c0-.8485-.225-1.4849-.676-1.9091-.45-.4242-1.014-.6364-1.69-.6364-.769 0-1.369.2453-1.8.7358-.431.4839-.646 1.1236-.646 1.9191v9.3267h-4.107v-9.5256c0-.7491-.215-1.3456-.646-1.7898-.424-.4441-.984-.6662-1.68-.6662-.471 0-.895.1193-1.273.358-.371.232-.666.5601-.885.9844-.219.4176-.328.9081-.328 1.4716v9.1676z"/><path d="m140.99 34.2075c-1.571 0-2.923-.3182-4.056-.9546-1.127-.643-1.996-1.5511-2.606-2.7244-.609-1.1799-.914-2.5753-.914-4.1861 0-1.571.305-2.9498.914-4.1364.61-1.1865 1.469-2.1112 2.576-2.7741 1.113-.6629 2.419-.9943 3.917-.9943 1.008 0 1.946.1624 2.814.4872.875.3182 1.638.7988 2.287 1.4418.656.6429 1.167 1.4517 1.531 2.4261.365.9678.547 2.1013.547 3.4006v1.1633h-12.896v-2.625h8.909c0-.6098-.132-1.1501-.398-1.6207-.265-.4707-.633-.8386-1.103-1.1037-.464-.2718-1.005-.4077-1.621-.4077-.643 0-1.213.1492-1.71.4474-.491.2917-.875.6861-1.154 1.1833-.278.4905-.421 1.0374-.427 1.6406v2.4958c0 .7556.139 1.4086.417 1.9588.285.5501.686.9744 1.204 1.2727.517.2983 1.13.4474 1.839.4474.471 0 .902-.0663 1.293-.1988.391-.1326.725-.3315 1.004-.5966.278-.2652.49-.59.636-.9745l3.918.2586c-.199.9413-.607 1.7632-1.223 2.4659-.61.696-1.399 1.2396-2.367 1.6307-.961.3844-2.071.5767-3.331.5767z"/><path d="m155 25.0796v8.8296h-4.235v-15.2728h4.036v2.6946h.179c.339-.8882.905-1.5909 1.701-2.1079.795-.5237 1.76-.7855 2.893-.7855 1.061 0 1.986.232 2.774.696.789.464 1.402 1.1269 1.84 1.9886.437.8551.656 1.876.656 3.0625v9.7245h-4.236v-8.9688c.007-.9346-.232-1.6638-.716-2.1875-.483-.5303-1.15-.7954-1.998-.7954-.57 0-1.074.1226-1.512.3679-.43.2452-.768.6032-1.014 1.0738-.238.464-.361 1.0242-.368 1.6804z"/><path d="m176.306 18.6364v3.1819h-9.197v-3.1819zm-7.109-3.6591h4.236v14.2387c0 .3911.059.696.179.9148.119.2121.285.3612.497.4474.218.0862.47.1293.755.1293.199 0 .398-.0166.597-.0498.199-.0397.351-.0696.457-.0894l.667 3.1519c-.213.0663-.511.1426-.895.2287-.385.0928-.852.1492-1.402.1691-1.021.0397-1.916-.0961-2.685-.4077-.762-.3116-1.356-.7955-1.78-1.4517-.424-.6563-.633-1.4849-.626-2.4858z"/></g></svg>