<svg fill="none" height="48" viewBox="0 0 169 48" width="169" xmlns="http://www.w3.org/2000/svg"><g fill="#fff" opacity=".9"><path d="m0 19.2h9.59998v9.59999h-9.59998z"/><path d="m28.8 28.8h9.6v9.59999h-9.6z" transform="matrix(-1 0 -0 -1 57.6 57.6)"/><path d="m9.6001 19.2 9.6-9.60002v9.60002l-9.6 9.6z" opacity=".4"/><path d="m19.2 28.8-9.6 9.6v-9.6l9.6-9.6z" opacity=".6"/><path d="m0 19.2 19.2-19.2v9.59999l-9.60002 9.60001z" opacity=".8"/><path d="m28.8 28.8-19.20002 19.2v-9.6l9.60002-9.6z" opacity=".8"/><path d="m49.708 34.28c-1.512 0-2.9774-.2147-4.396-.644-1.4-.4294-2.5107-.9987-3.332-1.708l1.26-2.828c.8026.6346 1.7826 1.1573 2.94 1.568 1.176.392 2.352.588 3.528.588 1.456 0 2.5386-.2334 3.248-.7.728-.4667 1.092-1.0827 1.092-1.848 0-.56-.2054-1.0174-.616-1.372-.392-.3734-.896-.6627-1.512-.868-.616-.2054-1.456-.4387-2.52-.7-1.4934-.3547-2.7067-.7094-3.64-1.064-.9147-.3547-1.708-.9054-2.38-1.652-.6534-.7654-.98-1.792-.98-3.08 0-1.0827.2893-2.0627.868-2.94.5973-.896 1.484-1.6054 2.66-2.128 1.1946-.5227 2.6506-.784 4.368-.784 1.1946 0 2.3706.1493 3.528.448 1.1573.2986 2.156.728 2.996 1.288l-1.148 2.828c-.8587-.504-1.7547-.8867-2.688-1.148-.9334-.2614-1.8387-.392-2.716-.392-1.4374 0-2.5107.2426-3.22.728-.6907.4853-1.036 1.1293-1.036 1.932 0 .56.196 1.0173.588 1.372.4106.3546.924.6346 1.54.84.616.2053 1.456.4386 2.52.7 1.456.336 2.6506.6906 3.584 1.064.9333.3546 1.7266.9053 2.38 1.652.672.7466 1.008 1.7546 1.008 3.024 0 1.0826-.2987 2.0626-.896 2.94-.5787.8773-1.4654 1.5773-2.66 2.1-1.1947.5226-2.6507.784-4.368.784z"/><path d="m60.9053 19.048h3.5v14.952h-3.5zm1.764-2.464c-.6346 0-1.1666-.196-1.596-.588-.4293-.4107-.644-.9147-.644-1.512 0-.5974.2147-1.092.644-1.484.4294-.4107.9614-.616 1.596-.616.6347 0 1.1667.196 1.596.588.4294.3733.644.8493.644 1.428 0 .616-.2146 1.1386-.644 1.568-.4106.4106-.9426.616-1.596.616z"/><path d="m73.6191 34.196c-1.2133 0-2.3987-.1587-3.556-.476-1.1573-.3174-2.0813-.7187-2.772-1.204l1.344-2.66c.672.448 1.4747.812 2.408 1.092.952.2613 1.8853.392 2.8.392 2.0907 0 3.136-.5507 3.136-1.652 0-.5227-.2707-.8867-.812-1.092-.5227-.2054-1.372-.4014-2.548-.588-1.232-.1867-2.24-.4014-3.024-.644-.7653-.2427-1.4373-.6627-2.016-1.26-.56-.616-.84-1.4654-.84-2.548 0-1.4187.588-2.548 1.764-3.388 1.1947-.8587 2.8-1.288 4.816-1.288 1.0267 0 2.0533.1213 3.08.364 1.0267.224 1.8667.532 2.52.924l-1.344 2.66c-1.2693-.7467-2.6973-1.12-4.284-1.12-1.0267 0-1.8107.1586-2.352.476-.5227.2986-.784.7-.784 1.204 0 .56.28.9613.84 1.204.5787.224 1.4653.4386 2.66.644 1.1947.1866 2.1747.4013 2.94.644.7653.2426 1.4187.6533 1.96 1.232.56.5786.84 1.4.84 2.464 0 1.4-.6067 2.52-1.82 3.36s-2.8653 1.26-4.956 1.26z"/><path d="m97.1358 19.048-7 16.156c-.6533 1.624-1.4467 2.7626-2.38 3.416-.9333.672-2.0627 1.008-3.388 1.008-.7467 0-1.484-.1214-2.212-.364-.728-.2427-1.3253-.5787-1.792-1.008l1.4-2.576c.336.3173.728.5693 1.176.756.4667.1866.9333.28 1.4.28.616 0 1.12-.1587 1.512-.476.4107-.3174.784-.8494 1.12-1.596l.252-.588-6.524-15.008h3.64l4.704 11.06 4.732-11.06z"/><path d="m107.611 18.88c1.456 0 2.754.3173 3.892.952 1.158.6346 2.063 1.5306 2.716 2.688.654 1.1573.98 2.492.98 4.004s-.326 2.856-.98 4.032c-.653 1.1573-1.558 2.0533-2.716 2.688-1.138.6346-2.436.952-3.892.952-2.016 0-3.612-.672-4.788-2.016v7.252h-3.4997v-20.384h3.3317v1.96c.579-.7094 1.288-1.2414 2.128-1.596.859-.3547 1.802-.532 2.828-.532zm-.392 12.32c1.288 0 2.343-.4294 3.164-1.288.84-.8587 1.26-1.988 1.26-3.388s-.42-2.5294-1.26-3.388c-.821-.8587-1.876-1.288-3.164-1.288-.84 0-1.596.196-2.268.588-.672.3733-1.204.9146-1.596 1.624-.392.7093-.588 1.5306-.588 2.464 0 .9333.196 1.7546.588 2.464.392.7093.924 1.26 1.596 1.652.672.3733 1.428.56 2.268.56z"/><path d="m127.003 18.88c1.885 0 3.397.5506 4.536 1.652 1.138 1.1013 1.708 2.7346 1.708 4.9v8.568h-3.5v-8.12c0-1.3067-.308-2.2867-.924-2.94-.616-.672-1.494-1.008-2.632-1.008-1.288 0-2.306.392-3.052 1.176-.747.7653-1.12 1.876-1.12 3.332v7.56h-3.5v-20.776h3.5v7.56c.578-.616 1.288-1.0827 2.128-1.4.858-.336 1.81-.504 2.856-.504z"/><path d="m152.163 19.048v14.952h-3.332v-1.904c-.56.672-1.26 1.1946-2.1 1.568-.84.3546-1.746.532-2.716.532-1.998 0-3.575-.5507-4.732-1.652-1.139-1.12-1.708-2.772-1.708-4.956v-8.54h3.5v8.064c0 1.344.298 2.352.896 3.024.616.6533 1.484.98 2.604.98 1.25 0 2.24-.3827 2.968-1.148.746-.784 1.12-1.904 1.12-3.36v-7.56z"/><path d="m161.365 34.196c-1.213 0-2.399-.1587-3.556-.476-1.157-.3174-2.081-.7187-2.772-1.204l1.344-2.66c.672.448 1.475.812 2.408 1.092.952.2613 1.885.392 2.8.392 2.091 0 3.136-.5507 3.136-1.652 0-.5227-.271-.8867-.812-1.092-.523-.2054-1.372-.4014-2.548-.588-1.232-.1867-2.24-.4014-3.024-.644-.765-.2427-1.437-.6627-2.016-1.26-.56-.616-.84-1.4654-.84-2.548 0-1.4187.588-2.548 1.764-3.388 1.195-.8587 2.8-1.288 4.816-1.288 1.027 0 2.053.1213 3.08.364 1.027.224 1.867.532 2.52.924l-1.344 2.66c-1.269-.7467-2.697-1.12-4.284-1.12-1.027 0-1.811.1586-2.352.476-.523.2986-.784.7-.784 1.204 0 .56.28.9613.84 1.204.579.224 1.465.4386 2.66.644 1.195.1866 2.175.4013 2.94.644.765.2426 1.419.6533 1.96 1.232.56.5786.84 1.4.84 2.464 0 1.4-.607 2.52-1.82 3.36s-2.865 1.26-4.956 1.26z"/></g></svg>