<svg fill="none" height="48" viewBox="0 0 166 48" width="166" xmlns="http://www.w3.org/2000/svg"><g opacity=".9"><circle cx="22" cy="24.2499" r="20.5" stroke="#fff" stroke-width="3"/><path d="m30.1317 32.3817c-4.1394 4.1394-8.8289 6.8416-13.0053 7.9155-4.2141 1.0837-7.61069.4599-9.6221-1.5515-2.0114-2.0114-2.63519-5.4081-1.55157-9.6222 1.07393-4.1763 3.77614-8.8658 7.91557-13.0052 4.1394-4.1394 8.8289-6.84165 13.0053-7.91557 4.214-1.08363 7.6107-.45984 9.6221 1.55157 2.0114 2.0114 2.6352 5.408 1.5516 9.6221-1.074 4.1764-3.7762 8.8659-7.9156 13.0053z" stroke="#fff" stroke-width="3"/><path d="m30.1315 16.1182c4.1394 4.1394 6.8416 8.829 7.9156 13.0053 1.0836 4.2141.4598 7.6107-1.5516 9.6222-2.0114 2.0114-5.408 2.6351-9.6221 1.5515-4.1764-1.0739-8.8659-3.7761-13.0053-7.9155-4.13942-4.1394-6.84163-8.8289-7.91556-13.0053-1.08362-4.2141-.45983-7.6107 1.55158-9.62213 2.0114-2.0114 5.40808-2.63519 9.62208-1.55157 4.1764 1.07393 8.8659 3.7761 13.0053 7.9155z" stroke="#fff" stroke-width="3"/><g fill="#fff"><path d="m62.85 34.24c4.71 0 7.89-2.46 7.89-6.39 0-8.31-11.04-4.77-11.04-9.15 0-1.23 1.11-2.07 2.88-2.07 2.01 0 3.27 1.08 3.42 2.73h4.29c-.12-3.99-3.18-6.6-7.71-6.6-4.26 0-7.26 2.46-7.26 5.94 0 8.25 10.89 5.1 10.89 9.21 0 1.59-1.35 2.43-3.36 2.43-2.22 0-3.63-1.35-3.81-3.48h-4.32c.18 4.47 3.36 7.38 8.13 7.38z"/><path d="m71.7602 40.12h4.17v-7.47c.81 1.02 2.28 1.59 3.99 1.59 4.35 0 7.29-3.09 7.29-7.8s-2.7-7.8-6.93-7.8c-1.95 0-3.45.72-4.35 1.89v-1.65h-4.17zm7.65-9.48c-2.25 0-3.72-1.68-3.72-4.2 0-2.55 1.47-4.23 3.72-4.23 2.19 0 3.69 1.68 3.69 4.23 0 2.52-1.5 4.2-3.69 4.2z"/><path d="m88.2192 34h4.17v-8.28c0-1.95 1.29-3.36 3.12-3.36 1.74 0 2.94 1.32 2.94 3.15v8.49h4.1698v-9.42c0-3.48-2.22-5.94-5.6098-5.94-2.1 0-3.75.87-4.62 2.34v-8.67h-4.17z"/><path d="m114.285 28.87c-.33 1.29-1.44 1.95-3.12 1.95-2.1 0-3.45-1.32-3.75-3.45h10.86c.03-.33.06-.78.06-1.35 0-3.45-2.13-7.38-7.47-7.38-5.13 0-7.47 3.93-7.47 7.77 0 3.81 2.64 7.83 7.77 7.83 3.72 0 6.6-2.1 7.2-5.37zm-3.42-7.17c2.01 0 3.18 1.35 3.3 3.03h-6.69c.36-2.1 1.5-3.03 3.39-3.03z"/><path d="m129.271 22.36v-3.48h-2.152c-1.83 0-2.97.63-3.78 2.52v-2.52h-4.2v15.12h4.2v-7.35c0-2.58.93-4.29 3-4.29z"/><path d="m143.671 18.88h-4.2v8.28c0 1.92-1.29 3.36-3.12 3.36-1.71 0-2.91-1.32-2.91-3.15v-8.49h-4.17v9.42c0 3.45 2.22 5.94 5.61 5.94 2.07 0 3.75-.9 4.59-2.34v2.1h4.2z"/><path d="m145.471 34h4.17v-21.69h-4.17z"/><path d="m161.546 28.87c-.33 1.29-1.44 1.95-3.12 1.95-2.1 0-3.45-1.32-3.75-3.45h10.86c.03-.33.06-.78.06-1.35 0-3.45-2.13-7.38-7.47-7.38-5.13 0-7.47 3.93-7.47 7.77 0 3.81 2.64 7.83 7.77 7.83 3.72 0 6.6-2.1 7.2-5.37zm-3.42-7.17c2.01 0 3.18 1.35 3.3 3.03h-6.69c.36-2.1 1.5-3.03 3.39-3.03z"/></g></g></svg>