<svg fill="none" height="48" viewBox="0 0 218 48" width="218" xmlns="http://www.w3.org/2000/svg"><g fill="#fff" opacity=".9"><g clip-rule="evenodd" fill-rule="evenodd"><path d="m4.71971 29.0628c.99784.9921.99783 2.6006-.00004 3.5927l-.0511.0508c-.99787.9921-2.61571.9921-3.61356 0-.9978409-.9921-.9978255-2.6006.00004-3.5927l.0511-.0508c.99787-.9921 2.61571-.9921 3.61356 0z" opacity=".8"/><path d="m16.7323 29.8281c.996.9939.9931 2.6024-.0066 3.5927l-7.07778 7.0115c-.99966.9903-2.6175.9874-3.61355-.0065s-.99312-2.6024.00654-3.5927l7.07779-7.0115c.9997-.9903 2.6175-.9874 3.6136.0065z" opacity=".9"/><path d="m26.3385 41.898c.7828-1.1674 2.3692-1.4829 3.5434-.7046l.1533.1016c1.1742.7783 1.4915 2.3556.7087 3.5229-.7828 1.1674-2.3692 1.4829-3.5434.7046l-.1533-.1016c-1.1742-.7782-1.4915-2.3555-.7087-3.5229z" opacity=".8"/><path d="m43.2005 28.9103c.9979.9921.9979 2.6006 0 3.5927l-3.475 3.455c-.9979.9921-2.6157.9921-3.6136 0-.9978-.9921-.9978-2.6006 0-3.5927l3.475-3.455c.9979-.9921 2.6157-.9921 3.6136 0z" opacity=".9"/><path d="m43.2516 16.1321c.9978.9921.9978 2.6006 0 3.5927l-25.6794 25.5311c-.9979.9921-2.6157.9921-3.6136 0s-.9979-2.6006 0-3.5927l25.6794-25.5311c.9979-.9921 2.6157-.9921 3.6136 0z"/><path d="m38.3968 8.28216c.9979.99209.9979 2.60064 0 3.59264l-14.7689 14.6836c-.9978.9921-2.6157.9921-3.6135 0-.9979-.992-.9979-2.6005 0-3.5926l14.7689-14.68364c.9978-.9921 2.6157-.9921 3.6135 0z"/><path d="m30.6023 3.30176c.9985.99143.9996 2.59993.0024 3.59269l-18.9849 18.90065c-.9972.9928-2.61501.9939-3.61354.0025-.99853-.9915-.99961-2.6-.00243-3.5927l18.98487-18.90072c.9972-.99276 2.6151-.99384 3.6136-.00242z"/><path d="m11.8006 9.35227c.9961.99383.9933 2.60233-.0062 3.59273l-7.43557 7.3672c-.99957.9903-2.61741.9876-3.613546-.0062s-.993351-2.6023.00622-3.5927l7.435536-7.36722c.99957-.99038 2.61746-.98761 3.61356.00619z" opacity=".9"/><path d="m16.3531 2c1.4112 0 2.5552 1.13738 2.5552 2.54042v.25404c0 1.40303-1.144 2.54041-2.5552 2.54041s-2.5552-1.13738-2.5552-2.54041v-.25404c0-1.40304 1.144-2.54042 2.5552-2.54042z" opacity=".8"/></g><path d="m62 23.4693h3.93c1.46 0 2.74-.2 3.84-.6 1.12-.42 2-1.02 2.64-1.8.66-.78.99-1.72.99-2.82 0-1.2-.33-2.19-.99-2.97-.64-.8-1.52-1.39-2.64-1.77-1.1-.4-2.38-.6-3.84-.6h-7.71v21h8.22c1.66 0 3.1-.2 4.32-.6 1.22-.42 2.16-1.06 2.82-1.92.68-.86 1.02-1.99 1.02-3.39 0-1.06-.24-1.96-.72-2.7-.46-.76-1.08-1.38-1.86-1.86-.78-.5-1.65-.86-2.61-1.08s-1.95-.33-2.97-.33h-4.44v2.76h3.87c.5 0 .95.05 1.35.15.42.08.79.22 1.11.42s.57.46.75.78.27.7.27 1.14c0 .68-.16 1.22-.48 1.62-.3.38-.71.66-1.23.84-.52.16-1.11.24-1.77.24h-2.58v-13.14h2.1c.88 0 1.56.18 2.04.54s.72.9.72 1.62c0 .48-.11.89-.33 1.23-.22.32-.54.57-.96.75-.4.18-.89.27-1.47.27h-3.39z"/><path d="m76.5218 14.9193c0 .72.26 1.31.78 1.77s1.14.69 1.86.69c.74 0 1.36-.23 1.86-.69.52-.46.78-1.05.78-1.77s-.26-1.3-.78-1.74c-.5-.46-1.12-.69-1.86-.69-.72 0-1.34.23-1.86.69-.52.44-.78 1.02-.78 1.74zm.45 5.19v13.8h4.38v-13.8z"/><path d="m83.3729 27.0093c0 1.44.34 2.7 1.02 3.78s1.62 1.92 2.82 2.52 2.55.9 4.05.9 2.84-.3 4.02-.9c1.2-.6 2.14-1.44 2.82-2.52.7-1.08 1.05-2.34 1.05-3.78 0-1.46-.35-2.73-1.05-3.81-.68-1.08-1.62-1.92-2.82-2.52-1.18-.6-2.52-.9-4.02-.9s-2.85.3-4.05.9-2.14 1.44-2.82 2.52-1.02 2.35-1.02 3.81zm4.65 0c0-.72.15-1.34.45-1.86s.69-.92 1.17-1.2 1.02-.42 1.62-.42c.58 0 1.11.14 1.59.42.5.28.89.68 1.17 1.2.3.52.45 1.14.45 1.86s-.15 1.34-.45 1.86c-.28.5-.67.89-1.17 1.17-.48.28-1.01.42-1.59.42-.6 0-1.14-.14-1.62-.42s-.87-.67-1.17-1.17c-.3-.52-.45-1.14-.45-1.86z"/><path d="m101.728 28.8993-1.8898 3c.6198.48 1.2898.92 2.0098 1.32.72.38 1.5.68 2.34.9.86.24 1.79.36 2.79.36 1.64 0 2.91-.37 3.81-1.11.92-.76 1.38-1.88 1.38-3.36 0-.86-.19-1.55-.57-2.07-.36-.52-.85-.95-1.47-1.29-.6-.34-1.26-.64-1.98-.9-.68-.26-1.26-.47-1.74-.63-.46-.18-.82-.37-1.08-.57-.24-.2-.36-.45-.36-.75 0-.26.1-.47.3-.63.22-.16.54-.24.96-.24.62 0 1.3.18 2.04.54.74.34 1.4.78 1.98 1.32l1.62-2.94c-.54-.4-1.12-.75-1.74-1.05-.6-.3-1.25-.54-1.95-.72-.68-.18-1.42-.27-2.22-.27-1 0-1.89.15-2.67.45-.76.3-1.37.74-1.83 1.32-.44.58-.66 1.29-.66 2.13 0 .88.19 1.6.57 2.16s.86 1.01 1.44 1.35c.6.32 1.23.6 1.89.84.74.22 1.32.43 1.74.63.44.2.75.41.93.63.18.2.27.45.27.75 0 .32-.11.58-.33.78s-.56.3-1.02.3c-.32 0-.7-.06-1.14-.18-.44-.14-.95-.37-1.53-.69-.56-.34-1.19-.8-1.89-1.38z"/><path d="m127.743 20.1093h-4.65l-4.41 11.04 2.34.03-4.47-11.07h-4.98l5.97 12.69-3.36 7.71h4.56z"/><path d="m137.328 25.5093v8.4h4.71v-8.88c0-1.66-.39-2.95-1.17-3.87s-2.03-1.38-3.75-1.38c-1.02 0-1.88.21-2.58.63-.68.42-1.22 1.01-1.62 1.77v-2.07h-4.56v13.8h4.56v-8.4c0-.54.1-1 .3-1.38s.48-.67.84-.87.78-.3 1.26-.3c.72 0 1.23.22 1.53.66.32.44.48 1.07.48 1.89z"/><path d="m143.094 20.1093v3.75h9.24v-3.75zm2.43-4.8v18.6h4.35v-18.6z"/><path d="m157.924 10.5093h-4.56v23.4h4.56zm4.41 15v8.4h4.53v-9.06c0-1.14-.16-2.1-.48-2.88s-.83-1.37-1.53-1.77c-.68-.4-1.59-.6-2.73-.6s-2.08.27-2.82.81c-.72.52-1.259 1.23-1.619 2.13-.36.88-.54 1.87-.54 2.97h.779c0-.54.1-.99.3-1.35.2-.38.48-.67.84-.87.36-.22.781-.33 1.261-.33.74 0 1.259.22 1.559.66s.45 1.07.45 1.89z"/><path d="m176.565 34.2093c1.76 0 3.25-.34 4.47-1.02 1.24-.68 2.22-1.7 2.94-3.06l-4.05-.99c-.34.6-.8 1.05-1.38 1.35-.56.3-1.24.45-2.04.45-.7 0-1.29-.15-1.77-.45-.48-.32-.84-.78-1.08-1.38s-.36-1.32-.36-2.16c.02-.92.14-1.68.36-2.28.24-.62.59-1.08 1.05-1.38s1.03-.45 1.71-.45c.54 0 1.01.12 1.41.36s.71.58.93 1.02.33.96.33 1.56c0 .14-.04.32-.12.54-.06.2-.14.37-.24.51l1.08-1.38h-8.52v2.52h12.6c.04-.14.06-.31.06-.51 0-.22 0-.44 0-.66 0-1.48-.29-2.74-.87-3.78s-1.42-1.83-2.52-2.37c-1.1-.56-2.45-.84-4.05-.84s-2.99.29-4.17.87c-1.16.58-2.05 1.41-2.67 2.49s-.93 2.36-.93 3.84c0 1.46.32 2.73.96 3.81s1.54 1.92 2.7 2.52c1.18.58 2.57.87 4.17.87z"/><path d="m186.592 28.8993-1.89 3c.62.48 1.29.92 2.01 1.32.72.38 1.5.68 2.34.9.86.24 1.79.36 2.79.36 1.64 0 2.91-.37 3.81-1.11.92-.76 1.38-1.88 1.38-3.36 0-.86-.19-1.55-.57-2.07-.36-.52-.85-.95-1.47-1.29-.6-.34-1.26-.64-1.98-.9-.68-.26-1.26-.47-1.74-.63-.46-.18-.82-.37-1.08-.57-.24-.2-.36-.45-.36-.75 0-.26.1-.47.3-.63.22-.16.54-.24.96-.24.62 0 1.3.18 2.04.54.74.34 1.4.78 1.98 1.32l1.62-2.94c-.54-.4-1.12-.75-1.74-1.05-.6-.3-1.25-.54-1.95-.72-.68-.18-1.42-.27-2.22-.27-1 0-1.89.15-2.67.45-.76.3-1.37.74-1.83 1.32-.44.58-.66 1.29-.66 2.13 0 .88.19 1.6.57 2.16s.86 1.01 1.44 1.35c.6.32 1.23.6 1.89.84.74.22 1.32.43 1.74.63.44.2.75.41.93.63.18.2.27.45.27.75 0 .32-.11.58-.33.78s-.56.3-1.02.3c-.32 0-.7-.06-1.14-.18-.44-.14-.95-.37-1.53-.69-.56-.34-1.19-.8-1.89-1.38z"/><path d="m198.353 14.9193c0 .72.26 1.31.78 1.77s1.14.69 1.86.69c.74 0 1.36-.23 1.86-.69.52-.46.78-1.05.78-1.77s-.26-1.3-.78-1.74c-.5-.46-1.12-.69-1.86-.69-.72 0-1.34.23-1.86.69-.52.44-.78 1.02-.78 1.74zm.45 5.19v13.8h4.38v-13.8z"/><path d="m206.765 28.8993-1.89 3c.62.48 1.29.92 2.01 1.32.72.38 1.5.68 2.34.9.86.24 1.79.36 2.79.36 1.64 0 2.91-.37 3.81-1.11.92-.76 1.38-1.88 1.38-3.36 0-.86-.19-1.55-.57-2.07-.36-.52-.85-.95-1.47-1.29-.6-.34-1.26-.64-1.98-.9-.68-.26-1.26-.47-1.74-.63-.46-.18-.82-.37-1.08-.57-.24-.2-.36-.45-.36-.75 0-.26.1-.47.3-.63.22-.16.54-.24.96-.24.62 0 1.3.18 2.04.54.74.34 1.4.78 1.98 1.32l1.62-2.94c-.54-.4-1.12-.75-1.74-1.05-.6-.3-1.25-.54-1.95-.72-.68-.18-1.42-.27-2.22-.27-1 0-1.89.15-2.67.45-.76.3-1.37.74-1.83 1.32-.44.58-.66 1.29-.66 2.13 0 .88.19 1.6.57 2.16s.86 1.01 1.44 1.35c.6.32 1.23.6 1.89.84.74.22 1.32.43 1.74.63.44.2.75.41.93.63.18.2.27.45.27.75 0 .32-.11.58-.33.78s-.56.3-1.02.3c-.32 0-.7-.06-1.14-.18-.44-.14-.95-.37-1.53-.69-.56-.34-1.19-.8-1.89-1.38z"/></g></svg>