<svg fill="none" height="48" viewBox="0 0 165 48" width="165" xmlns="http://www.w3.org/2000/svg"><g fill="#fff" opacity=".9"><path d="m15.7144 33.4286c8.6787 0 15.7143-7.0356 15.7143-15.7143 0-.9836-.0904-1.9461-.2633-2.8796-.9335-.1729-1.896-.2633-2.8796-.2633-8.6787 0-15.7143 7.0355-15.7143 15.7143 0 .9836.0904 1.9461.2633 2.8796.9335.1729 1.896.2633 2.8796.2633z"/><path clip-rule="evenodd" d="m12.8347 33.1653c-7.30352-1.3526-12.8347-7.7558-12.8347-15.451 0-8.67877 7.03553-15.7143 15.7143-15.7143 7.6952 0 14.0985 5.53118 15.451 12.8347-.9335-.1729-1.896-.2633-2.8796-.2633-8.6787 0-15.7143 7.0356-15.7143 15.7143 0 .9836.0904 1.9461.2633 2.8796z" fill-rule="evenodd" opacity=".8"/><path clip-rule="evenodd" d="m15.7143 33.4285c8.6788 0 15.7143-7.0355 15.7143-15.7143 0-.9836-.0904-1.9461-.2632-2.8796 7.3035 1.3526 12.8346 7.7559 12.8346 15.451 0 8.6788-7.0355 15.7143-15.7142 15.7143-7.6952 0-14.0985-5.5312-15.4511-12.8347.9335.1729 1.896.2633 2.8796.2633z" fill-rule="evenodd" opacity=".6"/><path d="m67.55 34.24c5.37 0 9.24-3.03 9.63-7.53h-4.5c-.36 2.16-2.43 3.63-5.13 3.63-3.39 0-6-2.34-6-6.84s2.61-6.87 6-6.87c2.64 0 4.71 1.47 5.01 3.66h4.71c-.57-4.53-4.44-7.53-9.72-7.53-5.61 0-10.53 3.66-10.53 10.74s4.83 10.74 10.53 10.74z"/><path d="m85.5313 18.64c-4.14 0-6.6 2.43-6.78 5.46h3.72c.06-1.26.99-2.4 2.82-2.4 1.71 0 2.7.87 2.7 2.13 0 .63-.39 1.11-1.14 1.11h-2.55c-3.3 0-5.52 1.8-5.52 4.77 0 2.58 2.01 4.53 4.95 4.53 2.07 0 3.75-.93 4.26-2.34v2.1h4.14v-9.72c0-3.42-2.79-5.64-6.6-5.64zm-.75 12.57c-1.17 0-2.01-.69-2.01-1.68 0-1.17.9-1.95 2.16-1.95h3.06v.21c0 1.92-1.17 3.42-3.21 3.42z"/><path d="m94.9337 40.12h4.17v-7.47c.81 1.02 2.2803 1.59 3.9903 1.59 4.35 0 7.29-3.09 7.29-7.8s-2.7-7.8-6.93-7.8c-1.95 0-3.45.72-4.3503 1.89v-1.65h-4.17zm7.6503-9.48c-2.25 0-3.7203-1.68-3.7203-4.2 0-2.55 1.4703-4.23 3.7203-4.23 2.19 0 3.69 1.68 3.69 4.23 0 2.52-1.5 4.2-3.69 4.2z"/><path d="m117.726 34.24c3.54 0 5.88-1.89 5.88-4.77 0-6.84-8.28-3.33-8.28-6.42 0-.96.81-1.47 1.98-1.47 1.14 0 2.31.69 2.49 1.98h3.63c-.15-2.97-2.61-4.92-6.24-4.92-3.09 0-5.4 1.89-5.4 4.56 0 6.36 8.13 3.33 8.13 6.42 0 .84-.9 1.47-2.19 1.47-1.56 0-2.61-.84-2.76-2.19h-3.6c.15 3.27 2.67 5.34 6.36 5.34z"/><path d="m140.076 18.88h-4.2v8.28c0 1.92-1.29 3.36-3.12 3.36-1.71 0-2.91-1.32-2.91-3.15v-8.49h-4.17v9.42c0 3.45 2.22 5.94 5.61 5.94 2.07 0 3.75-.9 4.59-2.34v2.1h4.2z"/><path d="m143.077 34h4.17v-21.69h-4.17z"/><path d="m160.352 28.87c-.33 1.29-1.44 1.95-3.12 1.95-2.1 0-3.45-1.32-3.75-3.45h10.86c.03-.33.06-.78.06-1.35 0-3.45-2.13-7.38-7.47-7.38-5.13 0-7.47 3.93-7.47 7.77 0 3.81 2.64 7.83 7.77 7.83 3.72 0 6.6-2.1 7.2-5.37zm-3.42-7.17c2.01 0 3.18 1.35 3.3 3.03h-6.69c.36-2.1 1.5-3.03 3.39-3.03z"/></g></svg>