<svg fill="none" height="48" viewBox="0 0 160 48" width="160" xmlns="http://www.w3.org/2000/svg"><g fill="#fff" opacity=".9"><path d="m22 2c-12.15031 0-22 9.8497-22 22s9.84969 22 22 22c10.901 0 19.9502-7.9284 21.6958-18.3333h-.1579c-1.6281 6.3258-7.3705 11-14.2046 11-8.1001 0-14.6666-6.5665-14.6666-14.6667s6.5665-14.66667 14.6666-14.66667c6.8341 0 12.5765 4.67417 14.2046 10.99997h.1579c-1.7456-10.40492-10.7948-18.3333-21.6958-18.3333z" opacity=".8"/><path d="m0 24c0-12.1503 9.84974-22 22-22 10.901 0 19.9502 7.92838 21.6958 18.3333h-14.8245c-1.6282-6.3258-7.3706-10.99997-14.2046-10.99997-8.10021 0-14.6667 6.56647-14.6667 14.66667z"/><path d="m0 24c0 12.1503 9.84974 22 22 22 10.901 0 19.9502-7.9284 21.6958-18.3333h-14.8245c-1.6282 6.3258-7.3706 11-14.2046 11-8.10021 0-14.6667-6.5665-14.6667-14.6667z"/><path d="m75.4389 20.5071c-.6264-4.5242-4.1065-7.1492-8.6207-7.1492-5.3196 0-9.3267 3.8779-9.3267 10.4603 0 6.5724 3.9574 10.4602 9.3267 10.4602 4.8423 0 8.054-3.1321 8.6207-7.0199l-3.7187-.0199c-.4674 2.3864-2.4162 3.7287-4.8523 3.7287-3.3011 0-5.6676-2.4758-5.6676-7.1491 0-4.5938 2.3466-7.1492 5.6775-7.1492 2.4759 0 4.4148 1.402 4.8424 3.8381z"/><path d="m83.0529 34.3082c2.3963 0 3.8281-1.1236 4.4844-2.4062h.1193v2.098h3.4602v-10.2216c0-4.0369-3.2912-5.25-6.2045-5.25-3.2117 0-5.6776 1.4318-6.473 4.2159l3.3608.4773c.3579-1.0441 1.3721-1.9389 3.1321-1.9389 1.6704 0 2.5852.8551 2.5852 2.3565v.0597c0 1.034-1.0838 1.0838-3.7784 1.3721-2.9631.3182-5.7969 1.2031-5.7969 4.6435 0 3.0028 2.1975 4.5937 5.1108 4.5937zm.9347-2.6449c-1.5014 0-2.5753-.686-2.5753-2.0085 0-1.3821 1.2031-1.9588 2.8139-2.1875.9446-.1292 2.8338-.3679 3.3011-.7457v1.7997c0 1.7003-1.3721 3.142-3.5397 3.142z"/><path d="m102.363 18.7273h-3.0132v-3.6591h-3.5994v3.6591h-2.1677v2.7841h2.1677v8.4914c-.0199 2.8736 2.0681 4.2855 4.7726 4.206 1.024-.0298 1.73-.2287 2.118-.358l-.607-2.8139c-.198.0497-.606.1392-1.054.1392-.904 0-1.6302-.3182-1.6302-1.7699v-7.8948h3.0132z"/><path d="m109.768 34.3082c2.396 0 3.828-1.1236 4.484-2.4062h.119v2.098h3.461v-10.2216c0-4.0369-3.292-5.25-6.205-5.25-3.212 0-5.677 1.4318-6.473 4.2159l3.361.4773c.358-1.0441 1.372-1.9389 3.132-1.9389 1.67 0 2.585.8551 2.585 2.3565v.0597c0 1.034-1.084 1.0838-3.778 1.3721-2.963.3182-5.797 1.2031-5.797 4.6435 0 3.0028 2.197 4.5937 5.111 4.5937zm.934-2.6449c-1.501 0-2.575-.686-2.575-2.0085 0-1.3821 1.203-1.9588 2.814-2.1875.945-.1292 2.834-.3679 3.301-.7457v1.7997c0 1.7003-1.372 3.142-3.54 3.142z"/><path d="m125.05 13.6363h-3.599v20.3637h3.599z"/><path d="m135.414 34.2983c4.474 0 7.318-3.152 7.318-7.875 0-4.733-2.844-7.8949-7.318-7.8949-4.475 0-7.318 3.1619-7.318 7.8949 0 4.723 2.843 7.875 7.318 7.875zm.02-2.8835c-2.476 0-3.689-2.2074-3.689-5.0015 0-2.794 1.213-5.0312 3.689-5.0312 2.436 0 3.649 2.2372 3.649 5.0312 0 2.7941-1.213 5.0015-3.649 5.0015z"/><path d="m152.429 40.0454c4.126 0 7.169-1.8892 7.169-5.7968v-15.5213h-3.55v2.5255h-.199c-.546-1.1037-1.69-2.7244-4.385-2.7244-3.529 0-6.304 2.7642-6.304 7.7855 0 4.9815 2.775 7.4673 6.295 7.4673 2.615 0 3.838-1.4019 4.394-2.5255h.179v2.8934c0 2.2472-1.491 3.1719-3.539 3.1719-2.168 0-3.123-1.0241-3.56-1.919l-3.242.7855c.657 2.1378 2.854 3.8579 6.742 3.8579zm.03-9.088c-2.377 0-3.629-1.8495-3.629-4.6634 0-2.7741 1.232-4.8125 3.629-4.8125 2.317 0 3.589 1.9191 3.589 4.8125 0 2.9134-1.292 4.6634-3.589 4.6634z"/></g></svg>