<svg fill="none" height="48" viewBox="0 0 202 48" width="202" xmlns="http://www.w3.org/2000/svg"><g fill="#fff" opacity=".9"><path d="m23.9589 26c-.5081-6.1595-5.6682-11-11.9589-11-6.62742 0-12 5.3726-12 12s5.37258 12 12 12h18v-13z" opacity=".8"/><circle cx="29" cy="24" r="15"/><path d="m52.896 24.2c0-1.9973.3827-3.7427 1.148-5.236.784-1.512 1.8947-2.6787 3.332-3.5 1.456-.8213 3.164-1.232 5.124-1.232 1.5307 0 2.9027.2987 4.116.896s2.1933 1.4373 2.94 2.52 1.1947 2.3333 1.344 3.752h-4.2c-.2427-1.12-.756-1.9973-1.54-2.632-.7653-.6533-1.7267-.98-2.884-.98-1.568 0-2.8093.588-3.724 1.764s-1.372 2.7253-1.372 4.648c0 1.904.4573 3.4533 1.372 4.648.9147 1.176 2.156 1.764 3.724 1.764 1.1573 0 2.1187-.3173 2.884-.952.784-.6533 1.2973-1.54 1.54-2.66h4.2c-.1493 1.4187-.5973 2.6693-1.344 3.752s-1.7267 1.9227-2.94 2.52-2.5853.896-4.116.896c-1.96 0-3.668-.4107-5.124-1.232-1.4373-.8213-2.548-1.9787-3.332-3.472-.7653-1.512-1.148-3.2667-1.148-5.264z"/><path d="m71.9122 14.4h3.948v19.6h-3.948z"/><path d="m84.5194 34.168c-1.512 0-2.8467-.2987-4.004-.896-1.1387-.616-2.0254-1.484-2.66-2.604-.616-1.12-.924-2.408-.924-3.864s.308-2.744.924-3.864c.6346-1.12 1.5213-1.9787 2.66-2.576 1.1573-.616 2.492-.924 4.004-.924s2.8373.308 3.976.924c1.1573.5973 2.044 1.456 2.66 2.576.6346 1.12.952 2.408.952 3.864 0 1.4747-.3174 2.772-.952 3.892-.616 1.1013-1.5027 1.96-2.66 2.576-1.1387.5973-2.464.896-3.976.896zm0-3.22c1.1013 0 1.9693-.3827 2.604-1.148.6533-.7653.98-1.764.98-2.996s-.3267-2.2307-.98-2.996c-.6347-.7653-1.5027-1.148-2.604-1.148-1.0827 0-1.9507.3827-2.604 1.148-.6347.7653-.952 1.764-.952 2.996s.3173 2.2307.952 2.996c.6533.7653 1.5213 1.148 2.604 1.148z"/><path d="m106.712 19.608v14.392h-3.5l-.364-1.736c-.504.5973-1.092 1.064-1.764 1.4s-1.4929.504-2.4636.504c-1.68 0-3.052-.5133-4.116-1.54-1.064-1.0453-1.596-2.7813-1.596-5.208v-7.812h3.948v7.336c0 1.3067.224 2.296.672 2.968.4667.6533 1.176.98 2.128.98.9896 0 1.7546-.364 2.2956-1.092.542-.7467.812-1.7827.812-3.108v-7.084z"/><path d="m122.729 14.4v19.6h-3.444l-.392-1.988c-1.101 1.4373-2.594 2.156-4.48 2.156-1.269 0-2.408-.2987-3.416-.896-1.008-.616-1.801-1.484-2.38-2.604-.56-1.12-.84-2.4173-.84-3.892 0-1.456.28-2.7347.84-3.836.579-1.12 1.372-1.9787 2.38-2.576 1.027-.616 2.175-.924 3.444-.924 1.867 0 3.314.6533 4.34 1.96v-7zm-7.392 16.548c1.064 0 1.914-.3733 2.548-1.12.635-.7653.952-1.764.952-2.996 0-1.2507-.317-2.2587-.952-3.024-.634-.7653-1.484-1.148-2.548-1.148s-1.922.3827-2.576 1.148c-.634.7653-.952 1.764-.952 2.996s.318 2.2307.952 2.996c.654.7653 1.512 1.148 2.576 1.148z"/><path d="m123.242 14.4 4.34-.028 3.612 14.336 3.836-14.308h3.78l3.724 14.308 3.696-14.308h4.256l-5.432 19.6h-4.844l-3.388-13.02-3.304 13.02h-4.844z"/><path d="m163.66 30.668v3.332h-2.016c-1.811 0-2.698-.784-2.66-2.352-.523.8213-1.167 1.4467-1.932 1.876s-1.689.644-2.772.644c-1.605 0-2.903-.364-3.892-1.092-.971-.7467-1.456-1.792-1.456-3.136 0-1.5307.56-2.7067 1.68-3.528 1.138-.84 2.781-1.26 4.928-1.26h2.856v-.7c0-.6533-.243-1.1667-.728-1.54-.485-.392-1.139-.588-1.96-.588-.728 0-1.326.1587-1.792.476-.467.3173-.747.7467-.84 1.288h-3.808c.131-1.4747.784-2.6133 1.96-3.416 1.176-.8213 2.735-1.232 4.676-1.232 2.035 0 3.603.448 4.704 1.344 1.12.896 1.68 2.1933 1.68 3.892v5.068c0 .3547.075.5973.224.728s.383.196.7.196zm-5.264-2.884h-2.884c-.821 0-1.465.168-1.932.504-.448.3173-.672.7747-.672 1.372 0 .504.187.9053.56 1.204.392.2987.915.448 1.568.448 1.027 0 1.838-.2893 2.436-.868.597-.5973.905-1.3907.924-2.38z"/><path d="m164.991 22.94h-2.38v-3.332h2.38v-4.032h3.948v4.032h3.276v3.332h-3.276v6.3c0 .504.103.868.308 1.092.224.224.588.336 1.092.336h2.044v3.332h-3.276c-2.744 0-4.116-1.372-4.116-4.116z"/><path d="m186.541 28.54c-.261 1.7547-1.008 3.136-2.24 4.144-1.213.9893-2.791 1.484-4.732 1.484-1.493 0-2.8-.2987-3.92-.896-1.12-.616-1.988-1.484-2.604-2.604-.597-1.12-.896-2.408-.896-3.864 0-1.4747.299-2.7627.896-3.864.616-1.12 1.484-1.9787 2.604-2.576 1.139-.616 2.455-.924 3.948-.924 1.923 0 3.491.4947 4.704 1.484 1.213.9707 1.96 2.324 2.24 4.06h-4.088c-.168-.7093-.504-1.2693-1.008-1.68-.504-.4293-1.129-.644-1.876-.644-1.027 0-1.848.3827-2.464 1.148s-.924 1.764-.924 2.996.308 2.2307.924 2.996 1.437 1.148 2.464 1.148c.765 0 1.4-.2147 1.904-.644.523-.4293.859-1.0173 1.008-1.764z"/><path d="m195.762 19.44c1.698 0 3.089.5227 4.172 1.568 1.101 1.0453 1.652 2.772 1.652 5.18v7.812h-3.948v-7.644c0-1.1947-.243-2.1-.728-2.716-.486-.6347-1.214-.952-2.184-.952-1.008 0-1.802.3453-2.38 1.036-.56.6907-.84 1.652-.84 2.884v7.392h-3.948v-19.6h3.948v6.972c1.064-1.288 2.482-1.932 4.256-1.932z"/></g></svg>