<svg fill="none" height="48" viewBox="0 0 216 48" width="216" xmlns="http://www.w3.org/2000/svg"><g fill="#fff" opacity=".9"><path d="m20.5333 31.3333c8.1002 0 14.6667-6.5665 14.6667-14.6666 0-8.10021-6.5665-14.6667-14.6667-14.6667h-20.5333v29.3333z" opacity=".8"/><path d="m0 2 35.2 44h-23.4667l-11.7333-14.6667z" opacity=".6"/><path d="m23.2637 31.0796c-.8846.1666-1.7973.2537-2.7304.2537h-20.5333v-29.3333z"/><path d="m59.34 34.28c-2.0534 0-3.8174-.4107-5.292-1.232-1.456-.84-2.576-2.016-3.36-3.528-.784-1.5307-1.176-3.332-1.176-5.404s.392-3.864 1.176-5.376 1.904-2.6787 3.36-3.5c1.4746-.84 3.2386-1.26 5.292-1.26 1.3253 0 2.576.2053 3.752.616 1.1946.4106 2.1746.9986 2.94 1.764l-1.176 2.856c-.84-.7094-1.6987-1.2227-2.576-1.54-.8774-.336-1.82-.504-2.828-.504-1.9974 0-3.5187.6066-4.564 1.82-1.0454 1.1946-1.568 2.9026-1.568 5.124 0 2.2213.5226 3.9386 1.568 5.152 1.0453 1.2133 2.5666 1.82 4.564 1.82 1.008 0 1.9506-.1587 2.828-.476.8773-.336 1.736-.8587 2.576-1.568l1.176 2.856c-.7654.7466-1.7454 1.3346-2.94 1.764-1.176.4106-2.4267.616-3.752.616z"/><path d="m74.0835 34.28c-1.4187 0-2.6507-.2894-3.696-.868-1.0453-.5787-1.8573-1.4-2.436-2.464-.5787-1.0827-.868-2.352-.868-3.808s.2893-2.716.868-3.78 1.3907-1.8854 2.436-2.464c1.0453-.5787 2.2773-.868 3.696-.868s2.6507.2893 3.696.868c1.0453.5786 1.8573 1.4 2.436 2.464s.868 2.324.868 3.78-.2893 2.7253-.868 3.808c-.5787 1.064-1.3907 1.8853-2.436 2.464-1.0453.5786-2.2773.868-3.696.868zm0-2.66c1.0453 0 1.8853-.3734 2.52-1.12.6347-.7654.952-1.8854.952-3.36 0-1.4934-.3173-2.604-.952-3.332-.6347-.7467-1.4747-1.12-2.52-1.12s-1.8853.3733-2.52 1.12c-.6347.728-.952 1.8386-.952 3.332 0 1.4746.3173 2.5946.952 3.36.6347.7466 1.4747 1.12 2.52 1.12z"/><path d="m84.0283 34v-13.692h3.416v2.1c.4107-.7467.98-1.3254 1.708-1.736.728-.4294 1.568-.644 2.52-.644 2.0533 0 3.3973.896 4.032 2.688.4293-.84 1.0453-1.4934 1.848-1.96.8027-.4854 1.7173-.728 2.7437-.728 3.08 0 4.62 1.876 4.62 5.628v8.344h-3.5v-8.204c0-1.0454-.177-1.8107-.532-2.296-.336-.4854-.9144-.728-1.7357-.728-.9147 0-1.6333.3266-2.156.98-.5227.6346-.784 1.5213-.784 2.66v7.588h-3.5v-8.204c0-1.0454-.1773-1.8107-.532-2.296-.336-.4854-.9053-.728-1.708-.728-.9147 0-1.6333.3266-2.156.98-.5227.6346-.784 1.5213-.784 2.66v7.588z"/><path d="m108.583 34v-13.692h3.416v2.1c.411-.7467.98-1.3254 1.708-1.736.728-.4294 1.568-.644 2.52-.644 2.053 0 3.397.896 4.032 2.688.429-.84 1.045-1.4934 1.848-1.96.803-.4854 1.717-.728 2.744-.728 3.08 0 4.62 1.876 4.62 5.628v8.344h-3.5v-8.204c0-1.0454-.177-1.8107-.532-2.296-.336-.4854-.915-.728-1.736-.728-.915 0-1.633.3266-2.156.98-.523.6346-.784 1.5213-.784 2.66v7.588h-3.5v-8.204c0-1.0454-.177-1.8107-.532-2.296-.336-.4854-.905-.728-1.708-.728-.915 0-1.633.3266-2.156.98-.523.6346-.784 1.5213-.784 2.66v7.588z"/><path d="m137.59 34.28c-.99 0-1.876-.1867-2.66-.56-.766-.392-1.372-.9147-1.82-1.568-.43-.6534-.644-1.3907-.644-2.212 0-1.008.261-1.8014.784-2.38.522-.5974 1.372-1.0267 2.548-1.288 1.176-.2614 2.753-.392 4.732-.392h.98v-.588c0-.9334-.206-1.6054-.616-2.016-.411-.4107-1.102-.616-2.072-.616-.766 0-1.55.1213-2.352.364-.803.224-1.615.5786-2.436 1.064l-1.008-2.38c.485-.336 1.054-.6254 1.708-.868.672-.2614 1.372-.4574 2.1-.588.746-.1494 1.446-.224 2.1-.224 1.997 0 3.481.4666 4.452 1.4.97.9146 1.456 2.3426 1.456 4.284v8.288h-3.276v-2.184c-.318.7653-.822 1.372-1.512 1.82-.691.4293-1.512.644-2.464.644zm.728-2.408c.914 0 1.67-.3174 2.268-.952.616-.6347.924-1.4374.924-2.408v-.616h-.952c-1.755 0-2.978.14-3.668.42-.672.2613-1.008.7466-1.008 1.456 0 .616.214 1.12.644 1.512.429.392 1.026.588 1.792.588z"/><path d="m148.394 34v-13.692h3.416v2.128c.467-.784 1.092-1.3814 1.876-1.792.803-.4107 1.699-.616 2.688-.616 3.23 0 4.844 1.876 4.844 5.628v8.344h-3.5v-8.176c0-1.064-.205-1.8387-.616-2.324-.392-.4854-1.008-.728-1.848-.728-1.026 0-1.848.3266-2.464.98-.597.6346-.896 1.484-.896 2.548v7.7z"/><path d="m170.037 34.28c-1.195 0-2.249-.2894-3.164-.868-.896-.5787-1.596-1.4-2.1-2.464-.504-1.0827-.756-2.352-.756-3.808 0-1.4747.252-2.7347.756-3.78.504-1.064 1.204-1.8854 2.1-2.464.915-.5787 1.969-.868 3.164-.868.971 0 1.848.2146 2.632.644.784.4293 1.372.9986 1.764 1.708v-8.12h3.5v19.74h-3.416v-2.268c-.373.784-.961 1.4093-1.764 1.876-.803.448-1.708.672-2.716.672zm.98-2.66c1.045 0 1.885-.3734 2.52-1.12.635-.7654.952-1.8854.952-3.36 0-1.4934-.317-2.604-.952-3.332-.635-.7467-1.475-1.12-2.52-1.12s-1.885.3733-2.52 1.12c-.635.728-.952 1.8386-.952 3.332 0 1.4746.317 2.5946.952 3.36.635.7466 1.475 1.12 2.52 1.12z"/><path d="m186.854 32.88v-5.684h-5.544v-2.464h5.544v-5.516h2.576v5.516h5.544v2.464h-5.544v5.684z"/><path d="m198.687 34v-19.74h8.568c2.166 0 3.836.5226 5.012 1.568 1.176 1.0266 1.764 2.4733 1.764 4.34 0 1.4746-.382 2.6973-1.148 3.668-.765.952-1.866 1.596-3.304 1.932.952.2986 1.736 1.0173 2.352 2.156l3.304 6.076h-3.948l-3.416-6.3c-.336-.616-.737-1.036-1.204-1.26-.448-.224-1.026-.336-1.736-.336h-2.66v7.896zm3.584-10.556h4.368c2.614 0 3.92-1.064 3.92-3.192 0-2.1094-1.306-3.164-3.92-3.164h-4.368z"/></g></svg>