<svg fill="none" height="48" viewBox="0 0 189 48" width="189" xmlns="http://www.w3.org/2000/svg"><g fill="#fff" opacity=".9"><path d="m21.58 4c-3.64 0-6.58 2.90426-6.58 6.5 0 3.5681 2.94 6.4723 6.552 6.5-.896-.0277-1.596-.7468-1.596-1.6319s.728-1.6319 1.652-1.6319h16.464c2.716 0 4.928-2.1851 4.928-4.86808 0-2.68302-2.212-4.86812-4.928-4.86812z"/><path d="m13.58 17c-3.64 0-6.58 2.9043-6.58 6.5 0 3.5681 2.94 6.4723 6.552 6.5-.896-.0277-1.596-.7468-1.596-1.6319s.728-1.6319 1.652-1.6319h16.464c2.716 0 4.928-2.1851 4.928-4.8681s-2.212-4.8681-4.928-4.8681z" opacity=".9"/><path d="m8.05 30c-3.9 0-7.05 3.1277-7.05 7 0 3.8426 3.15 6.9702 7.01998 7-.95999-.0298-1.70998-.8042-1.70998-1.7575 0-.9531.78002-1.7574 1.77003-1.7574h17.63997c2.91 0 5.28-2.3532 5.28-5.2425 0-2.8894-2.37-5.2426-5.28-5.2426z" opacity=".8"/><path d="m52.98 33.9092v-21h13.5v3.6h-9.54v5.01h8.7v3.6h-8.7v5.19h9.72v3.6z"/><path d="m68.2113 39.9092v-20.88h3.72v1.8h.54c.34-.58.87-1.09 1.59-1.53.72-.46 1.75-.69 3.09-.69 1.2 0 2.31.3 3.33.9 1.02.58 1.84 1.44 2.46 2.58s.93 2.52.93 4.14v.48c0 1.62-.31 3-.93 4.14s-1.44 2.01-2.46 2.61c-1.02.58-2.13.87-3.33.87-.9 0-1.66-.11-2.28-.33-.6-.2-1.09-.46-1.47-.78-.36-.34-.65-.68-.87-1.02h-.54v7.71zm7.8-8.88c1.18 0 2.15-.37 2.91-1.11.78-.76 1.17-1.86 1.17-3.3v-.3c0-1.44-.39-2.53-1.17-3.27-.78-.76-1.75-1.14-2.91-1.14s-2.13.38-2.91 1.14c-.78.74-1.17 1.83-1.17 3.27v.3c0 1.44.39 2.54 1.17 3.3.78.74 1.75 1.11 2.91 1.11z"/><path d="m85.8422 33.9092v-14.88h3.78v14.88zm1.89-16.62c-.68 0-1.26-.22-1.74-.66-.46-.44-.69-1.02-.69-1.74s.23-1.3.69-1.74c.48-.44 1.06-.66 1.74-.66.7 0 1.28.22 1.74.66s.69 1.02.69 1.74-.23 1.3-.69 1.74-1.04.66-1.74.66z"/><path d="m99.3009 34.3292c-1.44 0-2.75-.3-3.93-.9-1.16-.6-2.08-1.47-2.76-2.61s-1.02-2.52-1.02-4.14v-.42c0-1.62.34-3 1.02-4.14s1.6-2.01 2.76-2.61c1.18-.6 2.49-.9 3.93-.9 1.4201 0 2.6401.25 3.6601.75s1.84 1.19 2.46 2.07c.64.86 1.06 1.84 1.26 2.94l-3.66.78c-.08-.6-.26-1.14-.54-1.62s-.68-.86-1.2-1.14c-.5-.28-1.13-.42-1.8901-.42-.76 0-1.45.17-2.07.51-.6.32-1.08.81-1.44 1.47-.34.64-.51 1.43-.51 2.37v.3c0 .94.17 1.74.51 2.4.36.64.84 1.13 1.44 1.47.62.32 1.31.48 2.07.48 1.1401 0 2.0001-.29 2.5801-.87.6-.6.98-1.38 1.14-2.34l3.66.87c-.26 1.06-.71 2.03-1.35 2.91-.62.86-1.44 1.54-2.46 2.04s-2.24.75-3.6601.75z"/><path d="m114.059 34.1492c-1.16 0-2.18-.26-3.06-.78-.86-.54-1.53-1.28-2.01-2.22s-.72-2.02-.72-3.24v-8.88h3.78v8.58c0 1.12.27 1.96.81 2.52.56.56 1.35.84 2.37.84 1.16 0 2.06-.38 2.7-1.14.64-.78.96-1.86.96-3.24v-7.56h3.78v14.88h-3.72v-1.95h-.54c-.24.5-.69.99-1.35 1.47s-1.66.72-3 .72z"/><path d="m125.375 33.9092v-14.88h3.72v1.68h.54c.22-.6.58-1.04 1.08-1.32.52-.28 1.12-.42 1.8-.42h1.8v3.36h-1.86c-.96 0-1.75.26-2.37.78-.62.5-.93 1.28-.93 2.34v8.46z"/><path d="m135.77 33.9092v-14.88h3.78v14.88zm1.89-16.62c-.68 0-1.26-.22-1.74-.66-.46-.44-.69-1.02-.69-1.74s.23-1.3.69-1.74c.48-.44 1.06-.66 1.74-.66.7 0 1.28.22 1.74.66s.69 1.02.69 1.74-.23 1.3-.69 1.74-1.04.66-1.74.66z"/><path d="m149.319 34.3292c-1.48 0-2.81-.3-3.99-.9s-2.11-1.47-2.79-2.61-1.02-2.51-1.02-4.11v-.48c0-1.6.34-2.97 1.02-4.11s1.61-2.01 2.79-2.61 2.51-.9 3.99-.9 2.81.3 3.99.9 2.11 1.47 2.79 2.61 1.02 2.51 1.02 4.11v.48c0 1.6-.34 2.97-1.02 4.11s-1.61 2.01-2.79 2.61-2.51.9-3.99.9zm0-3.36c1.16 0 2.12-.37 2.88-1.11.76-.76 1.14-1.84 1.14-3.24v-.3c0-1.4-.38-2.47-1.14-3.21-.74-.76-1.7-1.14-2.88-1.14-1.16 0-2.12.38-2.88 1.14-.76.74-1.14 1.81-1.14 3.21v.3c0 1.4.38 2.48 1.14 3.24.76.74 1.72 1.11 2.88 1.11z"/><path d="m164.778 34.1492c-1.16 0-2.18-.26-3.06-.78-.86-.54-1.53-1.28-2.01-2.22s-.72-2.02-.72-3.24v-8.88h3.78v8.58c0 1.12.27 1.96.81 2.52.56.56 1.35.84 2.37.84 1.16 0 2.06-.38 2.7-1.14.64-.78.96-1.86.96-3.24v-7.56h3.78v14.88h-3.72v-1.95h-.54c-.24.5-.69.99-1.35 1.47s-1.66.72-3 .72z"/><path d="m182.274 34.3292c-1.94 0-3.53-.42-4.77-1.26s-1.99-2.04-2.25-3.6l3.48-.9c.14.7.37 1.25.69 1.65.34.4.75.69 1.23.87.5.16 1.04.24 1.62.24.88 0 1.53-.15 1.95-.45.42-.32.63-.71.63-1.17s-.2-.81-.6-1.05c-.4-.26-1.04-.47-1.92-.63l-.84-.15c-1.04-.2-1.99-.47-2.85-.81-.86-.36-1.55-.85-2.07-1.47s-.78-1.42-.78-2.4c0-1.48.54-2.61 1.62-3.39 1.08-.8 2.5-1.2 4.26-1.2 1.66 0 3.04.37 4.14 1.11s1.82 1.71 2.16 2.91l-3.51 1.08c-.16-.76-.49-1.3-.99-1.62-.48-.32-1.08-.48-1.8-.48s-1.27.13-1.65.39c-.38.24-.57.58-.57 1.02 0 .48.2.84.6 1.08.4.22.94.39 1.62.51l.84.15c1.12.2 2.13.47 3.03.81.92.32 1.64.79 2.16 1.41.54.6.81 1.42.81 2.46 0 1.56-.57 2.77-1.71 3.63-1.12.84-2.63 1.26-4.53 1.26z"/></g></svg>